<?xml version="1.0" encoding="utf-8"?>
<!-- Generator: Adobe Illustrator 20.0.0, SVG Export Plug-In . SVG Version: 6.00 Build 0)  -->
<svg version="1.1" id="Layer_1" xmlns="http://www.w3.org/2000/svg" xmlns:xlink="http://www.w3.org/1999/xlink" x="0px" y="0px"
	 viewBox="0 0 9824 2617.4" enable-background="new 0 0 9824 2617.4" xml:space="preserve">
<title>Artboard 1</title>
<g>
	<path fill="#2A3F2A" d="M972.2,1939.5c11.9-3.9,23.8-7.6,36.7-11.7c-6.5,11-12.8,21.6-13.6,34.3c-0.8,13.2,8.7,22.4,14.9,34.4
		c-15.4-3.8-29.5-7.4-41.8-15.6c-7.7-5.2-13.2-12-13.7-21.9c-0.4-7.5,2.5-12.9,9.2-16.2C966.6,1941.5,969.3,1940.4,972.2,1939.5z"/>
	<path fill="#2A3F2A" d="M1853.8,241.6c-13.8,1.7-26,2.5-37.9,5c-13.9,3-23.6-1-34.1-11.1c-37.1-35.6-82.6-53.8-133.5-59.2
		c-47.9-5.1-93.4,5.5-137.9,21.4c-39.9,14.2-77.4,34.6-111.1,60.2c-1.8,1.4-3.8,2.7-6.5,4.7l-50.7-35.5c3.2-2.8,5.7-5.2,8.4-7.4
		c34.2-27.1,72.2-47.5,112.1-64.9c6.1-2.6,12.4-5,18.4-7.6c37-16.1,75.9-22,115.9-22.4c66.2-0.7,128,14.8,184.5,49.7
		c24.2,14.8,45.7,33.6,63.7,55.6C1847.8,233.5,1850.3,236.9,1853.8,241.6z"/>
	<path fill="#2A3F2A" d="M2372.3,1194.1l-27.6-31.2c6.2-11.9,12.3-23.3,18.2-34.9c20.6-40.7,40.4-81.9,52.7-126.1
		c5-17.6,8.5-35.6,10.5-53.8c3.4-31-4.5-60.2-18.3-87.8c-14.7-29.3-35.8-53.7-60.2-75.3c-39.9-35.2-85.5-61.1-134-82.3
		c-3.9-1.7-7.9-3.4-12.7-5.5c7.6-22.2,13.6-44.5,14.7-68.6c2.9,1.2,5.1,1.9,7,3c62,34,119.1,74.7,168.9,125.1
		c45.6,46.2,77.4,101.5,101.5,161.4c16,39.7,28,80.5,33.2,123.1c5.4,44.1,3.9,87.7-7.8,132c-2.1-2-3.9-3.1-5.2-4.8
		c-6.2-8.3-12.1-16.8-18.5-24.9c-3.1-3.6-4.3-8.3-3.2-12.9c6.2-33.8,2.7-67-6.6-99.8c-2.2-7.7-5.5-15-9.7-21.8
		c-5.2-8.5-11-8.8-17.9-1.7c-7.5,7.8-12.4,17.2-16.3,27.2c-13.3,34.8-26.4,69.8-40.4,104.3c-6.6,16.3-15.3,31.8-23.2,47.6
		C2376.1,1189.1,2374.2,1191.4,2372.3,1194.1z"/>
	<path fill="#2A3F2A" d="M1710.7,2247.3c48,5.1,93.7,19.4,140.3,36.2l-24.9,37.8l-14.5-5.9c-32.5-13.2-65.7-24-100.8-27.8
		c-22.3-2.4-44.5-1.9-66.3,4.6c-19.6,5.9-36.6,15.8-50,31.5c-1.5,1.8-3.1,3.4-5.6,6c-8.7-12.5-15.1-25.4-17.5-39.9
		c-0.4-2.4,2.4-5.9,4.6-8.2c15.6-16.5,35.4-25.7,57.1-30.9C1658.9,2244.5,1684.8,2244.6,1710.7,2247.3z"/>
	<path fill="#2A3F2A" d="M1353.7,1821c0.1,0.1,0.2,0.1,0.3,0.2l0,0L1353.7,1821L1353.7,1821z"/>
	<path fill="#073808" d="M892.6,1032.4c-21-12.3-49.9-1.5-61.9,20.5L892.6,1032.4z M892.6,988.9c20.5,0.8,40.5-3.5,60.4-7.1
		c40.8-7.5,78.8-0.7,114.6,19.9c37.5,21.6,70.8,48.7,100.8,79.8c14.5,15,25.9,32.2,30.9,52.9c3.7,15.4,2.8,30.4-3.8,44.9
		c-2,4.6-4.7,8.9-6.4,13.6c-3.3,9-6.1,18.2-9,27.4c-0.7,2.2-0.8,4.6-1.3,6.9c-3.5,15.5-9.4,18.5-24,12.1c-0.6-0.2-1.3-0.4-1.9-0.5
		l-7.3-3.9c-7.8-13-15.7-26-23.4-39.1c-1.1-1.9-4.2-3.8-1.5-6.6l0,0l0.6,0.2c5.2,5.8,11.9,8.8,19.4,9.8c6.5,0.8,10.6-1.5,12-7.8
		c1.4-6.1,1.8-12.5,1.4-18.7c-2-23.7-10.6-45.3-23.6-65c-17.4-26.5-38.6-50.3-62.9-70.7c-22-18.4-47.1-29.8-75.7-33.2
		c-16.8-2-37.9-0.3-49.3,4.7c1,0.2,2.1,0.2,3.1,0.2c2.7-0.2,5.3-0.4,8-0.7c41.1-4.4,78,5.7,109.8,32.3c25.1,21,46.8,45.7,64.3,73.3
		c10,15.6,17.1,32.4,20.3,50.7c1.4,7.8,1.9,15.8,1.4,23.8c-0.4,6.6-4,8.6-10.3,7.4c-3.9-0.7-7.5-2.5-11.3-3.8l-6.7-2.3
		c-0.1-0.1-0.3-0.3-0.4-0.4l-0.1,0.1c0,0-0.1,0.1-0.1,0.1c-32.5-40.7-64.2-82.1-104.3-116c-29.3-24.8-63.2-34.6-101.1-32.2
		c-4.3,0.3-6.6,2.1-8.2,5.9c-1.7,4.3-3.9,8.5-6,12.6c-12.7,25.3-33.7,37.7-61.6,39.2c-5,0.3-10,0.5-15,0.9
		c-12.6,1.2-23.5,6.7-35.3,15.5c0.7-5.9,0.8-10,1.7-13.9c3.1-13.6,5.4-27.5,10.2-40.5c3.8-9.9,9.4-19.1,16.5-27
		c17.9-20.4,40.8-27.9,67.6-22.4c7.1,1.5,14.2,4.3,21.3,4.5s14.4-2.2,23.4-3.8c-12.9-8.8-26.2-14.3-38.9-21.3
		C891.9,989.6,892.3,988.9,892.6,988.9L892.6,988.9z"/>
	<path fill="#2A3F2A" d="M2484.7,1475.9c-45.9,56.1-98,106.9-155.3,151.4c-4.1-13.4-7.9-26-11.8-38.7c26-24.6,52.6-48.3,77.4-73.7
		c24.6-25.2,47.5-52.2,72.1-79.5C2473,1448.9,2478.8,1462.2,2484.7,1475.9z"/>
	<path fill="#2A3F2A" d="M2354.6,1779.8c3,32.2,6,64.3,8.6,96.5c3.3,40.5-5.4,78.8-21.2,115.8c-17.6,41.1-42.1,77.9-70.8,112
		c-54.8,65-117.7,120.6-191.1,163.9c-44.8,26.5-92.7,45.4-144.3,53.6c-13.7,2.2-27.6,3.2-43.7,5c2.9-4.1,4.4-6.1,5.7-8.2
		c3.9-6.2,9-12,11.4-18.7c4.1-11.4,12-15.6,23-18.8c16.6-4.8,32.8-10.9,48.5-18.1c27.1-12.5,45.8-33.5,54-62.2
		c7.1-24.6,12.7-49.6,18.1-74.7c7-32.3,15.1-64.2,30.3-93.8c5-9.8,10.6-19.2,16.9-28.3c20.8-30.1,48.9-50,84-61.1
		c29.8-9.4,59.1-20.5,88.2-32.1c15.3-6.1,29.5-14.9,44.9-22.9c0,13.4,0.2,26.9-0.2,40.3c-0.1,2-2.5,4.7-4.6,5.8
		c-7.3,4-14.6,8.2-22.3,11.1c-34.8,13.4-69.5,27-104.7,39.4c-15.8,5.4-29.8,15.3-40.1,28.5c-14,17.7-23.7,37.8-31.7,58.7
		c-15.1,39.4-24.6,80.2-30.1,121.9c-0.3,2.7-0.4,5.3-0.3,8c0.2,1,0.5,1.9,0.9,2.7c4.7,2.6,8.5-0.2,12.2-2
		c20.2-9.8,36.8-23.9,50.6-41.4c19.9-25.4,31.9-54.5,40-85.4c6.7-25.6,10.1-51.6,12-77.9c0.2-2.9,0.5-5.9,0.8-9.5l36.7-11.6
		c-1.1,40.1-7.6,78.5-14.4,117.9c2.3-1.1,3.3-1.3,4-1.9c44.4-38.5,76-85.3,91.7-142.3c7-25.5,6.6-51.4,4.5-77.4
		c-1.9-24.2-3.6-48.5-5.3-72.8c-0.1-1.3,0-2.6,0-4.3l35.8-23.1C2353.5,1775.4,2354.4,1777.5,2354.6,1779.8z"/>
	<path fill="#718C68" d="M1787,1172.9c-11.7-25.2-36.5-39.8-51.7-63.8c3.2,0,5.6-0.6,7.3,0.1c5.4,2.4,11.1,4.7,15.8,8.2
		C1774.5,1129.1,1786.4,1152.3,1787,1172.9z"/>
	<path fill="#718C68" d="M728.6,469.3c-17.4,25.5-68.4,41.8-88.6,17.8C670.8,485.7,700.8,487.3,728.6,469.3z"/>
	<path fill="#2A3F2A" d="M945.7,1008.6c-1.1,0-2.1-0.1-3.1-0.2c11.4-5,32.5-6.7,49.3-4.7c28.7,3.3,53.8,14.8,75.7,33.2
		c24.3,20.4,45.4,44.2,62.9,70.7c13.1,19.7,21.6,41.3,23.6,65c0.5,6.3,0,12.6-1.4,18.7c-1.4,6.3-5.5,8.7-12,7.8
		c-7.6-1-14.3-4-19.4-9.8l6.7,2.3c3.8,1.3,7.4,3.1,11.3,3.8c6.4,1.2,9.9-0.9,10.3-7.4c0.4-7.9-0.1-15.9-1.4-23.8
		c-3.1-18.3-10.3-35.1-20.3-50.7c-17.6-27.6-39.3-52.3-64.3-73.3c-31.9-26.7-68.8-36.8-109.8-32.3
		C951,1008.2,948.3,1008.4,945.7,1008.6z"/>
	<path fill="#718C68" d="M965.5,858.8c-2-14.2-1.3-28.6,3.6-42.3c2.1,13.3,3.6,26.8,6.5,40s10.4,25.1,11.9,40
		c-6.9-2.8-11.2-7.2-13.6-12.4C970.4,875.9,966.7,867.4,965.5,858.8z"/>
	<path fill="#2A3F2A" d="M2371.3,1901.4c-0.9-14.6-1.6-27.3-2.6-39.9c-0.5-4,1-8,4.1-10.7c3.1-3,6-6.2,8.8-9.5
		c33.7-38.6,51.6-83.2,47.2-134.7c-1.7-20.4-7.6-40.5-12.8-60.5c-5-19.3-11-38.4-17.6-57.3c-2.4-6.9-1-11,4-15.5
		c8.1-7.2,15.8-15.1,24.1-23.2c0.9,1.3,1.7,2.6,2.4,4c13.9,36,25.2,73,33.7,110.7c8.6,38,4.4,75.5-7.3,112.3
		c-14.4,45-37.8,84.3-73.7,115.6C2378.8,1895.4,2375.7,1897.8,2371.3,1901.4z"/>
	<path fill="#718C68" d="M1735.3,1109.1c15.1,24,39.9,38.6,51.7,63.8c-0.6-20.6-12.5-43.8-28.6-55.5c-4.7-3.5-10.4-5.8-15.8-8.2
		C1740.9,1108.4,1738.5,1109.1,1735.3,1109.1z M1846.1,1016.2c23.4,3.5,42.6,14.8,57.5,33c5.4,6.4,10.1,13.3,14.2,20.6
		c8.9,16.3,17.2,33,25.7,49.4c-24.1-0.7-47.3-0.7-70.3-2.1c-38.3-2.4-70.7-17.7-95.5-47.6c-1.7-2.1-3.5-4-5.3-6
		c-10-11.5-10-11.7-25.3-10.2c-17.9,1.8-35.6,4.3-54,10.5c3.1,1.8,5.3,3,7.4,4.4c8.6,5.6,17.6,10.8,25.8,17
		c4.8,3.6,10.2,6.2,15.9,7.7c9.6,2.7,19.2,5.6,28.3,9.5c12,5.2,20.4,14.6,26.4,26.3c7.6,14.9,11.3,31.5,10.6,48.2
		c-0.6,18.4-9,49.2-18.1,64.5c-0.3,0-0.9,0-0.9-0.2c-7.7-17.2-21.7-28.3-36.9-38.2c-21-13.7-34-32.9-37.2-57.7
		c-1.4-11.3,0.3-23.1,0.7-36.6c-1.3-1.2-2.7-2.3-4.2-3.2c-17.8-10.8-37.3-16-57.9-16.6c-11.3-0.3-22.6,0.1-34,0.2
		c-7,0.2-14-1.9-19.7-5.9c-6.1-4.4-9-10-6.5-17.2c2.1-5.9,4.3-12,7.6-17.2c20.6-32.3,50.2-51.8,87.7-59.1
		c13.6-2.6,27.2-0.5,40.7,1.8c11.4,1.9,22.8,3.6,34.8,5.5l-62.8,32.6c0.2,0.7,0.5,1.3,0.7,2c3.1-0.3,6.3-0.7,9.4-0.8
		c18-0.5,35.9-1.4,53.9-1.3c6.8,0.1,12.3-2.4,18-4.9C1803,1015.9,1824.2,1012.9,1846.1,1016.2L1846.1,1016.2z M1865.6,1058.8
		c4.9,1.8,9.6,3.9,14.4,5.9c0.2-0.7,0.5-1.3,0.7-2c-18.5-16.4-39.6-27.5-64.7-29.6c-10.6-0.9-21,0.9-30,9c5.2,0.9,10.3,1.9,15.5,2.8
		c5.6,0.9,11.1,1.8,16.7,2.7c5.2,0.9,10.5,1.7,15.7,2.7c5.5,1.1,11.1,2.2,16.5,3.6C1855.5,1055.4,1860.6,1057,1865.6,1058.8z"/>
	<path fill="#718C68" d="M240.3,1488.1c2.1,2.6,4.4,5,7,7.8l-16.3,40.4c-2.7-2.5-4.7-4-6.4-5.9c-21.2-24.3-42.6-48.6-63.6-73.2
		c-27.2-31.9-41.8-69.4-47.4-110.5c-5.3-39.5-2.8-78.5,9.4-116.6c4.2-13,9.2-25.6,17.5-38.6c3.9,8.2,6.6,15.8,10.9,22.4
		c8.2,12.4,7.8,24,3,38.1c-15.8,46.5-12.9,92.5,8.6,136.9c3,6.3,6.7,12.3,11,17.8C196,1434.1,218.2,1461.1,240.3,1488.1z"/>
	<path fill="#718C68" d="M1957.4,711.6l68.6,25c-7.8,5-14,6.3-20.6,5.3C1985,739,1970.3,726.6,1957.4,711.6z"/>
	<path fill="#2A3F2A" d="M244.2,1343.5c6.3-8.9,11.8-18.3,18.3-28.6c13.1,17.8,24.8,34,37,49.8c8.3,10.8,17,21.3,25.9,31.8
		c34.6,40.9,53.9,88.2,60,141.3c2.4,20.9,2.2,42-0.4,62.8c-0.3,2.9-1,5.8-1.8,10.4c-6.9-5.6-12.3-10.9-18.5-14.9
		c-11.1-7-13.6-15.6-12.7-28.9c3-48.1-11.3-91.2-42.3-128.6c-21.9-26.4-43-53.5-64.7-80C240.6,1353.2,240.2,1349.1,244.2,1343.5z"/>
	<path fill="#718C68" d="M1558.8,1972.6L1558.8,1972.6l0.4,0.2L1558.8,1972.6z"/>
	<path fill="#2A3F2A" d="M1354,1821.2c-0.1-0.1-0.2-0.1-0.3-0.2c0-0.3,0-0.6,0-1L1354,1821.2z"/>
	<path fill="#718C68" d="M2056.4,486.7c-32.2-2-63.2,3.2-93.2-6.2c21.3,14.5,44.2,22.7,70.2,18.3
		C2041.6,497.4,2049.2,494.5,2056.4,486.7z M1874.6,418.7c19.1,13.1,39,14.7,59.7,12.7c14.6-1.4,29.2-2.2,43.8-3
		c16.5-1,31.7,3.5,45.8,11.8c10.3,6.1,20.3,12.7,30.2,19.5c4.4,3,8.7,4.1,14,2.9c56.7-12.3,108.7-0.7,157.9,29.1
		c68.3,41.4,113.6,101.4,142.8,174.6c8.9,22.3,16.1,45.1,20.3,70.2c-2.5-1.4-4.1-2-5.4-3c-18.6-15.1-37.1-30.3-55.9-45.2
		c-4-3.2-5.7-7-7.1-11.5c-15.8-51.9-44.6-95-88.1-127.7c-30.8-23.1-65-39.3-103.3-45.2c-12.8-2-25.9-1.9-38.8-2.8
		c-5.9-0.4-10.7,1.7-15.4,5.4c-19.7,15.6-41.9,25.6-67,28.9c-34.1,4.4-64.2-4.6-89.3-28c-21.1-19.7-36.3-43.4-42.6-72
		C1875,430,1875.1,424.3,1874.6,418.7L1874.6,418.7z"/>
	<path fill="#718C68" d="M516.5,1107.3c-0.4,3-0.6,6-1.2,8.9c-1.7,8.1-5.9,14.8-11.5,20.7c-13.5,14.2-30.2,22.3-49.4,24.9
		C479.1,1148.3,494.1,1124.3,516.5,1107.3z"/>
	<path fill="#718C68" d="M882.8,2150.8c11.3,6.3,23.6,10.7,35.5,16c3.6,1.6,7.1,3.2,12.3,5.6c-3.8,1.9-5.8,3.4-8.1,4.1
		c-9.9,2.9-19.8,5.7-29.8,8.2c-11,2.7-14.1,6.7-12.5,17.5c10.2,70.8,42.7,129.6,96,177c1.4,1.2,2.8,2.6,5.3,5
		c-19.3,3.2-36.5,2.8-53.4-1.8c-4.4-1.3-8.5-3.6-11.9-6.7c-6.2-5.6-11.8-11.8-16.7-18.5c-36.1-51.2-62.6-106.8-75.3-168.4
		c-2.3-11.3-3.1-23.1-3.6-34.7c-0.5-10.9,4.4-16,15.1-14.6C851.8,2141.6,868,2142.5,882.8,2150.8z"/>
	<path fill="#2A3F2A" d="M1498.4,1295.5L1498.4,1295.5L1498.4,1295.5C1498.4,1295.5,1498.4,1295.6,1498.4,1295.5z"/>
	<path fill="#2A3F2A" d="M1377.2,1830.7c3.4-6.9,9.5-8.6,15.7-4c3.7,2.8,7,6.2,9.6,10.1c19.9,29.2,27,60.7,14.5,94.8
		c-5.9,16.2-11.7,32.8-20.1,47.8c-8.9,15.8-21,29.8-32.4,45.5c-11.5-11.2-20.9-21.8-28.3-34.4c1.7-2.6,3.1-4.8,4.7-6.9
		c26.5-35.1,37-74.6,33.5-118.3c-0.7-8.6,0-17.3,0.4-25.9C1375,1836.3,1375.8,1833.4,1377.2,1830.7z"/>
	<path fill="#718C68" d="M2033.5,498.7c-26,4.4-48.9-3.7-70.2-18.3c30,9.4,61,4.2,93.2,6.2C2049.2,494.5,2041.6,497.4,2033.5,498.7z
		"/>
	<path fill="#2A3F2A" d="M1478.9,1416.5c-0.1,0.1-0.2,0.2-0.3,0.3l0,0L1478.9,1416.5z"/>
	<path fill="#2A3F2A" d="M1670.1,837c8.4,27.2,1.2,73.4-18.4,85.1c0-4-0.6-7.4,0.1-10.6c2.6-12.4,5.4-24.7,8.4-37
		C1663.3,862,1666.8,849.5,1670.1,837z"/>
	<path fill="#718C68" d="M973.9,1874.9c2.9,0.1,5.8,0.1,8.7,0.4c49,4.6,93.3-6.9,130.8-39.8c18.7-16.3,34.3-8.8,40.3,9.9
		c12.8,39.9,11.8,78.8-13.1,114.6c-5.8,8.3-12.7,15.5-21.5,20.6c-7.2,4.2-14.7,7-23.7,5.5c0.9-0.8,1.3-1.5,1.8-1.6
		c31.9-8.5,46.5-33,55.1-61.8c7.2-24.2,4.5-48.8-2.4-72.9c-0.1-0.3-0.2-0.6-0.3-0.9c-4.8-15.7-16.5-23.8-32.9-9.1
		c-34.6,30.9-76,42.9-121.7,40.6c-7.1-0.4-14.2-2.5-21.3-3.8L973.9,1874.9z"/>
	<path fill="#718C68" d="M1616.5,2154.7c12.1-1.4,24-4.9,35.9-7.8c4.5-1.1,7.8-0.9,11.9,1.7c10.4,6.4,21.5,11.9,32.3,17.8
		c2.5,1.4,5.1,2.6,9.4,4.7c-73.7,32.4-146.1,29.9-219.6,5l19.5-39.2c9.6,2.9,19.6,6.2,29.8,9
		C1562.1,2153.2,1589,2157.8,1616.5,2154.7z"/>
	<path fill="#073808" d="M1127,2144.4c66.7-15.5,118.2-54.2,164.2-101.8c0.9-0.9,1.9-1.8,3.5-3.3l28.1,29.9
		c-1.6,1.8-2.8,3.4-4.2,4.7c-32.1,30.6-66,58.9-104,82.1c-18.8,11.5-38.3,21.6-60.3,25.5c-5.1,0.9-10.4,0.9-16.3,1.4L1127,2144.4z"
		/>
	<path fill="#2A3F2A" d="M1354,1821.2L1354,1821.2z"/>
	<path fill="#2A3F2A" d="M1540.2,2401.9c-34.6,62.7-84.9,106.2-154.6,125.2c-48.4,13.2-95.8,7.1-141.8-11.5
		c-13.5-5.4-26.5-12.2-41.6-19.3c4.1-2.1,6.2-3.3,8.4-4.2c10.9-4.2,21.9-7.9,32.6-12.5c4.8-2.2,10.3-2.3,15.1-0.1
		c25.3,10,51.5,15.8,78.9,15.3c30.4-0.6,58.3-9.1,83.7-25.9c43.2-28.7,76.5-65.9,97.3-113.8c2.2-5.2,4.7-10.3,7.1-15.4
		c0.2-0.4,1-0.6,2.2-1.3c1.1,1.9,2.1,3.9,3.2,5.8c5.3,10,10.4,20.1,16,29.9c1.8,3.2,2.7,5.9,1.2,9.3
		C1545.2,2389.6,1543.4,2396.1,1540.2,2401.9z"/>
	<path fill="#718C68" d="M1676.4,986.6c-31.9,8.9-58.1,26.3-77,53.7c-4.8,7.2-8.5,15-11,23.2c-3.7,12,1.3,21,13.1,25.2
		c6.2,2.2,12.9,3,21.6,4.9c-21,9.2-33.8,24.9-46.8,40.5c-4.1,5-9.9,8.9-15.5,12.2c-6.8,4-11.1,2-13.7-5.6c-1.1-3.5-1.8-7.1-2.1-10.7
		c-1.7-16,0.2-32.1,5.5-47.2c13-37.4,34.6-69.1,64.8-94.3c35-29.1,75.2-38.4,119.8-27c4.5,1.2,9,2.3,13.5,3.6
		c20.8,5.9,41.6,11.8,63.8,10.2c-20,11-40.4,19.3-64,14.6c-11.7-2.3-23.6-3.8-35.4-5.8C1700.5,982,1688.4,983.2,1676.4,986.6z"/>
	<path fill="#2A3F2A" d="M1409.7,1475.8c20.6,16.8,36.4,37.3,45.4,62.3c6.3,17.5,11.5,35.4,15.7,53.6c6,25.6,10.1,51.6,16.3,77.2
		s16.5,49.2,32.3,70.4s35.7,35.7,62,40.7c1.5,0.2,3.1,0.3,4.7,0.3l-0.1,2.4h-0.3c-23.9,0.6-43.3-9-59.8-25.5
		c-11.2-11.2-19.8-24.2-27-38.2c-14-27.2-21.9-56.3-28.1-86.1c-5.4-26-11.1-52.1-18.2-77.7c-7.6-27.7-23.2-50.6-45.6-69
		c-9.5-7.8-18.7-16.1-27.7-24.5c-17.8-16.6-28.7-37.3-34.4-60.9s-6.7-47.5-6.9-71.5c-0.5-41.1,3.4-81.9,7.7-122.6
		c3.1-29.9,8.3-59.3,16.6-88.2c8.8-30.8,22-60,33.3-89.9c7.8-20.5,15.3-41.2,21.1-62.4c6.2-22.9,5.6-46.8,6.5-70.5
		c0.7-19,1.8-38,3.8-56.8c2-19.4,7.6-37.9,18-54.6c1.9-3.1,4.2-5.8,6.4-8.8c0.5,1.8,0.2,3.7-0.8,5.2c-10,17.4-16,36.8-17.4,56.9
		c-1.9,24.2-3.2,48.6-3.3,72.8c0,34.4-6.1,68.5-18.3,100.7c-10.5,27.7-21,55.4-31.4,83.2c-10.3,27.5-19.2,55.5-22.8,84.7
		c-5.6,45.3-11.1,90.7-11.2,136.4c-0.1,25-0.1,50,4.7,74.7c5.6,28.8,18.4,53.3,41.8,71.8C1398.5,1466.4,1404.1,1471.2,1409.7,1475.8
		z"/>
	<path fill="#FFFFFF" d="M1498.5,1295.6L1498.5,1295.6z"/>
	<path fill="#718C68" d="M1351.9,1819.9c0.3,0.2,0.6,0.4,0.8,0.5C1352.4,1820.3,1352.1,1820.1,1351.9,1819.9z"/>
	<path fill="#718C68" d="M1060.1,525.5c7.1,3.4,14.8,6.3,20.9,11.1c15.9,12.2,29.7,38.5,31,58.4c-15.2-26.6-39.8-45.2-59.5-69.6
		C1056,525.4,1058.4,524.7,1060.1,525.5z"/>
	<path fill="#2A3F2A" d="M1433.7,1299c1,11.6,1.6,23.3,3.6,34.8c1.4,7.2,3.9,14,7.5,20.4c3.3,6.1,7.2,6.2,11.8,0.8
		c3.4-4.1,6.3-8.5,8.8-13.3c4-7.7,7.2-15.8,11.4-23.3c3.6-6.4,7.7-12.4,12.4-18c2-2.4,5.8-3.2,9-4.6c-1.8,1.2-4.1,2.1-5.1,3.8
		c-5.4,8.8-10.6,17.6-15.4,26.7c-2.8,5.3-4.4,11.1-6.9,16.6c-1.8,3.9-3.9,7.7-6.3,11.3c-3.6,5.4-8.1,10.3-15.3,9.6
		c-7.3-0.7-10.9-6.6-12.6-12.8c-3-10.5-5.9-21.2-7.2-32.1c-6.8-55.7-0.2-109.6,23.3-161.1c9.4-20.6,16.9-42.1,19.3-64.9
		c0.9-8.6,0.9-17.2,1.9-25.9c4.6,12,3.9,24.4,2.1,36.8c-2.6,17.3-9.2,33.3-15.5,49.5c-5.7,14.6-11.3,29.2-16.3,44
		C1432.9,1230.3,1430.8,1264.4,1433.7,1299z"/>
	<path fill="#2A3F2A" d="M1073,2345.3c10.5,11,19.2,23.6,25.5,37.5c-43.1,37.8-92.7,56.9-149.5,53.2
		c-69.8-4.6-120.5-42.6-162.6-96.7l46.7-6.8c2,2.2,4.9,5.4,7.8,8.6c35.3,37.6,78.3,56.4,130.2,54c31.4-1.5,58.9-13,83-32.8
		C1060.4,2357.1,1066.1,2351.5,1073,2345.3z"/>
	<path fill="#2A3F2A" d="M2413.5,1122.3l16.2-40c1.8,1.4,3.5,2.9,5.1,4.5c21.9,25.1,44,50,65.6,75.4c24.9,29.1,39.2,63.2,45.4,100.8
		c7.6,45.5,5.3,90.3-10.9,133.8c-3.6,9.5-8.3,18.6-13.3,29.7c-7.4-13.8-13.4-25.2-19.7-36.6c-1.9-3.4-1.3-6.2,0-9.4
		c8.2-19.7,13-40.7,14-62.1c2-41.7-7.7-80.2-33.8-113.3c-20.6-26.2-42.4-51.4-63.6-77C2417,1126.4,2415.4,1124.6,2413.5,1122.3z"/>
	<path fill="#718C68" d="M1103.3,1759.9c-2,0.5-4.1,0.3-5.9-0.5c2.4-1,4.8-2,7.2-3c29.8-11.9,50.3-33,62.4-62.5
		c2.2-5.2,4.1-10.6,6.7-15.6c1.9-3.9,4.4-7.4,7.4-10.6c8.2-8.2,19.9-7.9,27.1,1.1c3.7,4.7,6.6,10,8.6,15.6
		c11.3,30.1,18.3,61.2,22.2,93c4,33.2,5.3,66.4,1.8,99.7c-1.7,16.8-5.2,33.5-8.1,50.2c-0.4,2.4-1.7,4.7-2.6,7.1l-1.4-0.4
		c0.9-8.2,1.5-16.5,2.8-24.6c11.6-72.7,6-144.1-16.1-214.2c-2.3-7.2-5.1-14.6-9.2-20.9c-6.5-10-16.9-10.3-23.8-0.5
		c-4.7,6.7-7.9,14.6-10.9,22.3c-6.8,17.5-17.8,33-32.1,45.1C1129,1750.3,1116.6,1756.7,1103.3,1759.9z"/>
	<path fill="#718C68" d="M965.3,361.3c1.2-3.7,2.9-7.3,4.8-12l42.7,18.8c-1.6,9.6-3.2,18-4.4,26.5c-5.7,39,6.1,72.3,33.8,100.1
		c2.6,2.6,6.7,3.8,10.3,5c11.7,3.8,24,6.1,35.2,10.9c36.3,15.8,54.8,44.1,55.3,83.7c0.1,8.6-0.9,17.3-1.8,25.8
		c-2.4,21.7-5,43.4-7.6,65.8c-1.2-1.3-2.4-2.7-3.8-3.8c-9.4-7.9-18.5-16.2-28.4-23.5c-10.2-7.5-21.5-13.5-31.5-21.1
		c-31.9-24.3-47.8-56.3-45.3-96.8c0.3-5.3,0-10.6-0.8-15.9c-0.4-2.6-2.2-5.8-4.4-7.1c-31-19.2-46.1-49-55.3-82.5
		C957.2,410.5,957.1,385.7,965.3,361.3z M1052.5,525.4c19.8,24.4,44.4,43,59.5,69.6c-1.4-19.9-15.2-46.2-31-58.4
		c-6.2-4.8-13.8-7.7-20.9-11.1C1058.4,524.7,1056,525.4,1052.5,525.4z"/>
	<path fill="#073808" d="M892.6,1032.4l-61.9,20.5C842.7,1030.9,871.6,1020.1,892.6,1032.4z"/>
	<path fill="#718C68" d="M308.5,1242.4c-44,55.3-81.7,114.7-114.3,179.4c-5.1-6.5-9.5-12-13.7-17.7c-4.4-5.8-8.6-11.8-13.3-18.2
		c33.7-64.4,74.3-125,121-180.8L308.5,1242.4z"/>
	<path fill="#073808" d="M2372.9,1413.1c-6.8-12.3-13.2-23.9-20.4-36.7c44.3-55.3,82-115.4,115-180.8c8,11.1,14.5,20.8,21.7,29.9
		c4.2,5.3,4,9.4,0.8,15.2c-22.3,40.6-46.5,80-73.9,117.4c-12.2,16.7-25.1,32.8-37.8,49.1C2376.9,1409.1,2375.2,1410.6,2372.9,1413.1
		z"/>
	<path fill="#718C68" d="M1957.4,711.6c12.9,15.1,27.6,27.4,48.1,30.3c6.5,0.9,12.8-0.3,20.6-5.3L1957.4,711.6z M1813.7,760.3
		c29.6-13.8,56.8-4.9,85.5,1.3c-5.8-11.6-14.4-16.7-24.8-18.9c-21-4.5-40,1.2-57.5,12.9C1816.2,756.1,1815.8,757.2,1813.7,760.3z
		 M1850.1,720.5c13.6,0.3,26.2,5,37.8,11.7c11.2,6.5,22.1,13.6,32.6,21.2c24.8,17.9,52.3,25.8,82.8,23c19.3-1.8,38.1-6.6,55.9-14.3
		c1.8-0.8,3.4-1.7,7.4-3.7c-9.9-1.4-17.6-2-25.2-3.6c-5.5-1.2-11.2-0.7-16.4,1.3c-7.3,2.4-14.7,4.2-22.2,5.5
		c-13.3,2.5-25.9,0-37.6-6.6c-13.8-7.6-25.7-18.2-34.7-31.2c-13.9-20.1-20.2-43.8-30.2-66.3c1.1,0.4,2.1,0.9,3.2,1.5
		c14.9,9.1,31,11.5,48.1,9.5c11.9-1.3,24-0.6,35.8,2c19.8,4.1,33.3,16,41.9,33.9c3.3,6.9,6.1,14,8.9,21.2c1.7,4.3,4.6,6.1,9,6.6
		c19.6,1.9,38.6,0.1,56.7-8c11.4-4.9,20.8-13.7,26.5-24.7c11.5-21.9,17.4-45.3,18.9-69.8c2.2-35-4.6-69-12.5-102.8
		c-0.5-2.2-1-4.5-2-9.2c10.1,2.2,18.4,3.2,26,6c10.8,4.1,21.1,9.6,31.5,14.8c3.7,1.7,6.3,5.2,6.9,9.2
		c13.3,68.9,4.1,133.9-33.8,193.8c-12.9,20.4-28.8,38.4-48.2,52.9c-28.8,21.5-61.1,33.7-97.3,34.4c-20.5,0.4-39.6-5.2-57.3-15.2
		c-14.8-8.4-28.9-17.9-43.3-26.8c-2.2-1.4-4.6-2.7-7.5-4.4c-3.5,2.2-7.2,4.4-10.8,6.7c-3.1,1.9-6.2,4-9,6.3
		c-26.2,23-56.5,26-89.1,18.5c-13.9-3.2-28.1-5.5-42.3-7.5c-8.5-1.2-17.2-1-26.6-1.5c1.1-2.3,1.8-4.8,3.2-6.8
		c9.7-13.9,18.4-28.8,29.6-41.4C1788.5,731.8,1816.9,719.8,1850.1,720.5L1850.1,720.5z"/>
	<path fill="#2A3F2A" d="M1353.7,1820.1c0.1,0.4,0.2,0.8,0.3,1.2l0,0L1353.7,1820.1z"/>
	<path fill="#2A3F2A" d="M2358.3,1400.6c15.4,27.9,29.3,56.8,44.1,85.1c3.3,6.2,3,10.8-2.4,15.7c-8,7.4-15.5,15.4-23.7,23.7
		c-1.9-4.2-3.4-7.4-5-10.6c-13.3-27.2-26-54.7-40-81.5c-24.6-46.8-34.2-96.2-29-148.7c2-20.2,6.3-40.2,12.8-59.4
		c1.1-3.4,2.5-6.8,4.4-11.8l26.1,29.4c-3.3,15.9-7.2,30-9.2,44.5C2331,1327.2,2338.6,1364.9,2358.3,1400.6z"/>
	<path fill="#718C68" d="M1598.6,504.8c28.9,8,65.5-17.3,69.4-44.5c-7.3,6-14.8,13.2-23.2,19c-7.9,5.4-16.9,9.2-25.4,13.9
		C1613,496.6,1606.7,500.2,1598.6,504.8z M1779.3,264c30.8-7.2,62.4-11,94.1-11.4c45.6-0.3,88.3,11.6,128.6,32.4
		c67,34.6,119.1,84.7,155.4,150.9c2.7,4.9,4.9,10.1,8.1,16.7c-5.7-1.1-9.8-2-13.9-2.6c-14.5-1.8-29-4-43.6-5.1
		c-5.4-0.4-8.3-2.1-11-6.5c-19.7-32.3-45.7-58.7-75.7-81.6c-32.5-24.9-69.4-38.9-109.4-46.1c-24.9-4.5-49.9-3.2-74.8-1.5
		c-46.9,3.2-93.3,11.8-138.2,25.6c-26.2,8.1-51.4,18.5-75,32.5c-28.6,16.7-53.1,39.6-71.7,67c-17.5,25.8-31.4,53.4-43,82.2
		c-0.6,1.4-0.9,3-1.9,6.4c23-12.7,47.2-13.9,70.9-18.8c1.6-5,3-9.7,4.6-14.4c2.6-7.5,5.1-15.2,8.2-22.5c6.6-15.7,18-26.9,33.3-34.4
		c16.6-8.2,34.4-12.4,52.5-15.8c12.6-2.3,25.4-4.2,38.9-6.5c-0.8,1.9-1,3-1.6,3.7c-8.8,9.1-13.8,20.3-17.3,32.3
		c-5,17.7-12.4,34.6-21.9,50.3c-12.2,19.9-30.1,29.5-53.1,30c-4.3,0.1-8.7,0.5-13,0c-27.4-3.5-51.8,7.3-76,17.1
		c-17.5,7.1-29.6,21.1-39.6,37c-9.8,15.5-13.6,33-18.1,50.5c-5.7,21.3-14.8,41.5-26.9,59.8c-0.6,0.8-1.2,1.6-1.8,2.4
		c-9.2,10.7-16.6,10.5-24.9-0.9c-8.3-11.4-12.6-25.4-11.9-39.5c0.5-15.9,2.7-31.8,4.2-47.7c0.9-8.9,1.6-17.9,3-26.8
		c0.7-3.9,2-7.6,4-11c12.8-22.3,24.4-45.1,31.3-70c9-32.2,8.6-63.5-10.6-92.2c-8.3-12.4-17.7-24.5-28.7-34.4
		c-43.9-39.5-91.1-75.1-141.1-106.4c-35.3-22.2-72.2-41.5-110.6-57.9c-2.1-0.9-4.2-1.9-7.2-3.2c1.8-2,3.8-4,5.8-5.8
		c14.8-11.4,30.9-21,47.9-28.7c5.3-2.4,9.7-2.3,15,0.4c32,16.5,63.2,34.4,92.9,54.8c37.6,25.9,74.8,52.3,112.4,78.3
		c12.6,8.7,25.4,17.2,38.6,25c24.1,14.4,49.6,16,76,7.2c18.8-6.2,35.8-16.7,49.7-30.7c2.6-2.6,4.7-5.6,7-8.4c4.3-5.3,4.7-11,1-16.7
		c-4.3-6.7-8.3-13.9-13.8-19.6c-15.7-16.3-32.1-32-48.2-47.8c-2.3-2.2-4.8-4.3-8.2-7.3c3.6-1.1,6-2,8.4-2.6
		c14.9-3.5,29.9-6.7,44.8-10.4c5.4-1.3,9.4-0.4,13.3,4c17.9,20.2,37.1,39.3,53.7,60.6c14.3,18.3,32.3,23.2,53.6,22.1
		C1729.6,276.5,1754.3,269.7,1779.3,264z"/>
	<path fill="#718C68" d="M1728.4,919.3c38.1-19.3,78.6-30.6,122.2-39.2c-2.7,3.1-3.9,4.8-5.3,6.2c-22.9,21.3-49.5,33.3-81.2,33.1
		C1752.2,919.2,1740.3,919.3,1728.4,919.3z"/>
	<path fill="#073808" d="M1748,515c11.6-27.3,32.5-48.8,45.9-76C1768.9,444.1,1746,482.4,1748,515z M1886.8,318.3
		c7.9,40.2-1,92.3-69.4,129.7c0,9-0.4,17.9,0.1,26.8c1.9,35.5-14.9,60.3-44,78.3c-2.3,1.4-4.7,2.6-7,3.8
		c-14.9,7.5-28.1,16.7-32.2,34.8c-1.5-1.3-2.5-1.8-2.9-2.5c-13.5-24.2-22.6-49.7-22.3-77.8c0.2-31.3,13.8-55.2,41.4-70.2
		c11.1-6,23.2-10,34.4-15.9c21.6-11.2,40.1-26,51.4-48.4c6-11.9,5.7-24.5,3.7-37.1c-0.9-6.2-2.5-12.2-4.1-19.7L1886.8,318.3z"/>
	<path fill="#2A3F2A" d="M1392.6,565.6c-5.3-13-5.4-25.7-7-38.1s-2.9-24.9-4.2-37.3C1399.9,505.4,1406.9,548.1,1392.6,565.6z"/>
	<path fill="#2A3F2A" d="M1353.7,1821.1l0.3,0.2h-0.2l0,0C1353.7,1821.2,1353.7,1821.1,1353.7,1821.1z"/>
	<path fill="#2A3F2A" d="M1264.4,420.8c-8.3,7.5-14.7,16.3-16.6,27.7c-0.6,3.7-1.4,7.7,2.1,11.2l49.1-60.7
		C1286.3,404.3,1274.6,411.6,1264.4,420.8z M1208.2,515.3c-5.1,12-4,24.5-2.1,37c6,40.8,18.7,79.6,36,116.9
		c7.4,16,14.8,32,21.8,48.2c7.8,17.9,10.3,37.1,12.9,56.2c0.4,2.9,1.7,6.6-1.9,9.2c-6.2-3.2-8.6-9.2-11.6-14.7
		c-9.9-18.1-21.9-35-35.8-50.4c-3.9-4.2-8.5-7.8-12.8-11.7c-0.8,2-0.6,2.9,0,3.4c12.5,11.3,21.8,25.1,30.6,39.3
		c5.8,9.3,11.7,18.6,17.6,27.8c1.7,2.8,3.8,5.5,6.2,7.8c5.4,5.1,11.1,3.7,12.4-3.6c1-6.2,1.1-12.5,0.4-18.8
		c-2-19.1-8.7-36.9-16-54.4c-11-26.1-23.5-51.5-33.6-77.9C1218.3,593.1,1204.7,556,1208.2,515.3L1208.2,515.3z M1529.2,676.9
		c11.6-25.5,12.1-52.2,23.8-75.2C1530.2,617.3,1518.3,653.2,1529.2,676.9L1529.2,676.9z M1303.5,930.5c-11.2-18.5-22.4-37.1-28.7-58
		c-4.2-14-8.5-28-13.8-41.7c-7.4-19.7-19.2-37.5-34.5-51.9l-1.5,1.2c1.6,2,3,4,4.7,5.9c13.6,15.6,23.8,33.9,29.9,53.8
		c3.2,10.5,6.1,21.1,9.5,31.6c6.8,21,15.3,41.2,27.8,59.6c2.7,4,5.7,9.7,11.5,7.8c5.1-1.6,4.7-7.6,4.9-12.1
		c0.6-21.2,5.1-41.6,10.7-61.9c9.1-32.8,9-65.8,2-98.9c-7.4-34.8-21-67.2-37.8-98.5c-11.5-21.4-22-43.3-32.9-65
		c-0.4-0.5-0.8-1-1.3-1.5c0,4.1,0.8,8.1,2.6,11.8c7.1,15,14.1,30.2,21.8,44.9c15.3,28.9,28.7,58.6,37.7,90.1
		c10.4,36.1,14.5,72.4,4.5,109.4c-5.9,21.9-11.6,43.8-11.3,66.7c0,2.9-1.2,5.9-2.1,9.7C1304.9,931.8,1304,931.3,1303.5,930.5z
		 M1431.2,1661.5c5.6,7.5,13.7,6,16.8-2.8c1.7-5,2.6-10.3,2.7-15.6c0.9-22.2-5.2-42.8-16-62c-14.6-26.3-33.6-49.8-56.2-69.6
		c-21.1-18.5-37.7-40.3-47.7-66.8c-1.7-4.7-3.8-9.2-6.4-13.5c-1.6-2.5-4.9-6-6.9-5.6c-2.5,0.4-5.5,4-6.3,6.7c-2,7-2.8,14.3-4,21.4
		l0.7,0.1c0.3,4,0.6,8,1,11.9c0.3,2.3,0.6,4.6,1.2,6.9c7.4,33.3,23.2,62.3,45.6,87.6c9.6,10.6,19.7,20.8,30.3,30.4
		c16,14.7,28.4,31.5,35.4,52.3C1423.7,1649.8,1427,1655.9,1431.2,1661.5L1431.2,1661.5z M2091.3,654.9
		c-131.2-34.5-258.1-23.8-380.2,36.3c-38,18.7-75,39.1-109.4,64c-3.8,2.8-9,4.1-13.8,5c-12.8,2.4-25.6,4.2-38.5,6.2
		c-33.1,5.1-58.2,21.7-74.9,50.9c-16.2,28.4-22.8,58.7-17.9,91.3c1.3,8.4,3.2,16.3,8.7,22.1c-5.2,19.7-10.7,38.5-15,57.6
		c-3,12.9-4.4,26.2-6.4,39.4c-0.5,3.3-0.6,6.7-0.2,10c4.1,30.3-2.2,59.1-13.5,86.9c-7.2,17.6-15,34.9-23.4,51.9
		c-21,42.6-29.7,87.6-25.7,134.8c4.6,53.8,21.1,103,58.6,143.4c4,4.5,8.5,8.4,13.5,11.7c6.9,4.3,12.8,2.6,16.9-4.4
		c2.1-3.7,4.2-7.8,4.8-12c1.7-11,2.6-22.1,3.9-33.1c0.4,0.3,0.9,0.6,1.2,1c0.2,0.2,0.3,0.4,0.5,0.6c0.1,0.2,0.3,0.4,0.4,0.7
		c1.1,2.3,0.2,5,0.3,7.5c0,19.7-0.4,39.3-0.2,59c1.3,107.1,35.6,202.5,101.9,286.4c1.8,2.3,3.5,4.7,6.1,8.2c-1.1,0-2-0.1-2.9-0.1
		c-1.6,0-3.1-0.1-4.7-0.3c-26.2-5-46.3-19.7-62-40.7s-26.1-45-32.3-70.4s-10.2-51.6-16.3-77.2c-4.2-18.1-9.5-36-15.7-53.6
		c-9-25-24.8-45.5-45.4-62.3c-5.7-4.6-11.3-9.4-17-13.9c-23.4-18.4-36.2-42.9-41.8-71.8c-4.8-24.7-4.8-49.7-4.7-74.7
		c0.1-45.7,5.6-91.1,11.2-136.4c3.6-29.2,12.5-57.2,22.8-84.7c10.4-27.8,20.9-55.4,31.4-83.2c12.1-32.2,18.3-66.3,18.3-100.7
		c0.1-24.3,1.4-48.6,3.3-72.8c1.4-20,7.4-39.5,17.4-56.9c1-1.5,1.4-3.4,0.8-5.2c-2.1,2.9-4.5,5.7-6.4,8.8
		c-10.4,16.8-15.9,35.2-18,54.6c-2,18.9-3.1,37.8-3.8,56.8c-0.9,23.7-0.3,47.6-6.5,70.5c-5.7,21.2-13.3,41.9-21.1,62.4
		c-11.4,29.9-24.5,59-33.3,89.9c-8.3,28.9-13.5,58.4-16.6,88.2c-4.3,40.8-8.2,81.6-7.7,122.6c0.3,24,1.2,48,6.9,71.5
		s16.6,44.2,34.4,60.9c9,8.4,18.2,16.7,27.7,24.5c22.4,18.3,38,41.3,45.6,69c7.1,25.6,12.8,51.7,18.2,77.7
		c6.2,29.8,14.1,58.9,28.1,86.1c7.2,14,15.8,27,27,38.2c16.6,16.5,35.9,26.1,59.8,25.5h0.3c2.6,0,6,1,7.6,2.8
		c12,12.4,23.6,25.2,35.7,38.3c-1.1,0.4-1.9,1.1-2.6,1c-20.8-2.6-41.6-5-62.4-8c-16.1-2.3-29.6-10.1-40.7-21.8
		c-8.5-8.9-16.5-18.3-24-28.1c-30.8-40.3-63.4-79.1-99.4-114.8c-13.2-13.1-27.7-25-41.5-37.6c-13.3-12.2-26.8-24.1-39.4-36.9
		c-27.5-27.9-41.4-62.3-46.4-100.7c-5.3-40.5-0.6-80.4,7-120.2c5.7-29.8,12.2-59.4,17.2-89.2c7.2-42.7,3.4-85.1-7.1-126.8
		c-4.8-19-10.5-37.8-16.6-56.5c-7.5-23.2-18.5-44.9-31.6-65.6c-14.8-23.3-29.6-46.7-40.5-72.3c-4-9.5-8.4-18.8-12.1-28.5
		c-1.1-2.9-0.4-6.5-0.3-9.7c2.4-59.2-14.7-111.5-58.4-152.6c-29.6-27.9-65.8-39.5-108.3-34.2c1.3,0.7,2.6,1.4,3.9,1.9
		c1.3,0.2,2.7,0.4,4,0.4c12.2,1.4,24.7,1.8,36.7,4.3c33.1,6.9,59.1,25.2,79.3,52c19.8,26.2,29.8,56.3,34.8,88.3
		c1.9,12,3.1,24.1,4.6,36.2l-2.1,0.7c-1.3-2.2-2.7-4.2-3.8-6.4c-36.8-69.5-88.7-125.3-154-168.9c-46.4-31-97.5-51.8-150-69.6
		c-58.3-19.8-118.2-30.3-179.8-27.1c-92.8,4.8-180.8,27.9-261.8,74.4c-32.3,18.3-61.1,42-85.4,70.1c-1.3,1.5-1.8,3.6-2.6,5.4l-3-1.8
		c-0.6-5.8-1.4-11.6-1.6-17.4c-1-21.1,2-41.8,6.9-62.4c1.5-6.5,5.1-12.3,10.2-16.5c29.5-25.5,62.7-45,97.6-61.9
		c50.5-24.5,103.9-39,159.5-46.5c47.1-6.3,94.3-8.4,141.6-5.1c89.1,6.1,173.7,29.5,254,68.6c41.2,20,80.4,43.3,117.1,70.6
		c37.7,28.1,68,62.6,89.1,105c9.6,19.3,14.8,39.9,19.6,60.7c5.6,24.1,12.2,47.7,21.8,70.5c11.1,26.5,19,54,26.3,81.7
		c3,11.6,7,22.9,12,33.8c3.9,8.3,9.8,15.8,15.6,23c2.8,3.5,7.2,5.9,11.3,7.9c6.4,3.1,11.2,0.8,12.8-6.1c0.9-3.9,1.1-7.9,0.8-11.9
		c-0.8-8.6-1.8-17.2-3.3-25.8c-3.8-21-1.3-41.2,8.4-60.3c4.7-9.2,9.7-18.2,14.8-27.2c6.5-11.6,13.3-23.1,19.8-34.7
		c15.5-28.3,19-58.7,15.1-90.2c-4.5-36.3-15.2-70.9-29.1-104.6c-7.7-18.6-17.8-35.8-32.4-50c-1.2-1.4-3-2.2-4.9-2.3
		c1.5,1.8,3,3.7,4.6,5.5c13.6,15.9,23.6,33.9,30.8,53.4c12.9,34.8,22.8,70.3,26.7,107.3c2.6,25.1-0.7,49.3-12.2,71.9
		c-6.2,12.2-13.2,23.9-20,35.8c-4.3,7.5-8.7,15-13,22.5c-13.9,24.7-19.6,50.7-13.3,78.9c1.6,7.1,2,14.5,2.4,21.8
		c0.2,3.8-0.6,7.7-1,11.6c-7.8,0.3-12.6-3.7-16-8.4c-5.8-8.1-11.5-16.5-15.3-25.6c-5-12-9-24.4-11.9-37
		c-5.8-23.6-13.3-46.8-22.4-69.3c-10.2-25.4-18.8-51.2-24.8-77.9c-9.3-42-27.3-79.9-56.2-112.3c-1.2-1.3-2.1-2.9-4.6-6.4
		c8.4,3.4,13.2,9.9,22.2,7.9c0-4.7,0.1-9.6,0-14.5c-1.1-57.2-13.9-112.2-31.5-166.2c-8.2-25.3-16.1-50.8-25.6-75.7
		c-14.2-37.1-34.4-70.6-62.6-99c-31.8-31.9-70-52.7-112.8-65.8c-39.4-12.2-80-20.2-121.1-24.1c-1.3-0.1-2.6-0.4-4.8-0.7
		c0.9-3,1.3-6,2.7-8.5c7.4-13.8,15.2-27.3,22.5-41.1c3.1-5.9,7.5-6.6,13.3-5.2c27.9,6.4,56,11.9,83.7,19.1
		c51.6,13.5,101.6,32.1,151.2,51.4c25.9,10.1,51.4,9.7,76.7-1.4c5.8-2.6,11.3-5.7,16.5-9.3c17.2-11.5,34.2-23.3,51.2-35
		c3-2,6-4.1,9.4-6.5c16.5,11.8,32.6,23.4,49.5,35.6c-5.7,3.6-10.2,6.5-14.7,9.2c-23,14.3-44.8,30.1-63.2,50.2
		c-19.3,21.1-33.2,45-38,73.5c-3.4,20-0.2,39.4,6.6,60.8c3.7-8.8,5.6-16,9.3-21.9c8.5-13.4,10.6-27,10-43.1
		c-1.3-31.8,14.1-55.5,43.2-69.4c6-2.8,12.3-5.2,18.7-6.9c17.2-4.9,35.1-7.6,52.4-18.2c-2.4,23-3.4,44.3-7.1,65
		c-5.5,30.9-24.6,51-54.6,60.5c-8.2,2.6-16.7,4.4-25.1,6.4c-3.6,0.9-6.8,1.6-8.4,5.8c-10.2,26.8-14.5,54.1-6.3,82.2
		c2.4,8.4,6.9,16.5,11.8,23.9c9.3,14.2,19,28.1,29.4,41.7c7,9.2,15.2,17.7,23,26.3c1.9,1.9,3.9,3.6,6.1,5.1
		c13.6,10.1,23.4,9.7,35.4-2.4c7.7-7.8,15.5-15.8,21.6-24.8l2.3,1.7c-0.3,2.8-1,5.5-1,8.3c0.7,33.6,6.1,66.3,18.3,97.7
		c3.2,7.7,7.3,15,12.2,21.7c6.2,8.7,13.3,9.8,22.7,4.7c9-5,15.6-12.6,21-21c5.2-8,9.7-16.3,15.6-26.3c-0.9,13.1-1.7,24.2-2.5,36.1
		c8.2-0.2,16-3.7,21.5-9.8c15.3-16.8,27.3-36.3,35.3-57.6c1.7-4.4,0.5-7.6-1.2-11.3c-6.9-14.7-10.5-30.1-9.6-46.5
		c0.6-10.5,2.8-20.7,8.7-29.4c6.7-9.8,13.8-19.8,22.2-28.1c15.1-14.9,34.1-24,54-33c-2.5,7-5,12.9-6.6,19.1
		c-2.7,10.6-0.7,21.2,1,31.7c2.3,13.6,2.9,27.2,0.4,40.8c-3.9,21.3-16.7,36.9-33.7,49c-7.4,5.2-8.5,11.7-9.1,20.9
		c85.3-58.8,175.1-103.9,277.1-121.2c75.1-12.7,150.3-16.3,226-7.3c31.3,3.8,62.6,8.6,93.2,19c0.7,24,0.4,47.4-7.7,70.5
		C2116.6,662.7,2104.1,658.3,2091.3,654.9z"/>
	<path fill="#2A3F2A" d="M241.5,1657c-10.9-10-20.5-18.7-30.1-27.3c-3.9-3.5-2.2-7.2-1-11c9-27.5,17.4-55.2,27.1-82.4
		c12.6-35.1,28-69.1,46-101.8c1.6-2.9,3.3-5.6,5.5-9.2c9.8,9.4,17.6,19.6,25,30.1c2.7,3.9-0.3,7-1.7,10.2
		c-11.2,25.6-23.6,50.7-33.3,76.9c-12.5,34-22.9,68.8-34.1,103.2C243.9,1648.7,243,1651.9,241.5,1657z"/>
	<path fill="#2A3F2A" d="M2199.9,1929.5c-0.4-1.8-0.7-3.7-0.9-5.6c-1.5-36-3.7-71.9-4.4-107.9c-1.4-73.2,23.9-136.2,74-189.4
		c0.7-0.7,1.4-1.4,2.2-2.1c0.9-0.5,1.9-0.8,2.8-1.1c3.4,12.5,7.1,24.9,9.9,37.4c0.5,2.3-2.3,5.9-4.4,8.2c-18,20.3-31.4,44.1-39.5,70
		c-8.5,27.2-8.6,54.9-6,83.1c2.6,29.5,3.3,59.2,4.8,88.8c0,2-0.2,4.1-0.4,6.1L2199.9,1929.5z"/>
	<path fill="#718C68" d="M1785.3,2331.2c-22.5,40.2-50.4,76-85.5,106c-42,35.8-89.9,59.1-145,66.3c-28,3.6-55.8,1.3-83.3-5.1
		c-0.9-0.4-1.8-1-2.5-1.7c0.5-0.9,1.1-1.7,1.8-2.5c11.3-10.3,22.7-20.4,34-30.8c2.5-2.3,4.5-4.3,8.5-3.8
		c42.2,5.1,80.3-6.8,116.1-28.3c29.1-17.5,54-39.9,76.6-65.1c16.3-18,31-37.5,43.9-58.1c0.9-1.4,1.9-2.7,3.1-4.5l40.5,12.2
		C1790.2,2321.9,1787.9,2326.6,1785.3,2331.2z"/>
	<path fill="#2A3F2A" d="M1448,1658.7c-3.1,8.8-11.2,10.2-16.8,2.8c-4.2-5.6-7.5-11.8-9.8-18.4c-7-20.8-19.5-37.6-35.4-52.3
		c-10.6-9.6-20.7-19.8-30.3-30.4c-22.4-25.3-38.2-54.3-45.6-87.6c-0.5-2.3-0.9-4.6-1.2-6.9c-0.4-4-0.7-8-1-11.9l-0.7-0.1
		c1.3-7.2,2.1-14.5,4-21.4c0.8-2.8,3.8-6.3,6.3-6.7c2-0.3,5.3,3.1,6.9,5.6c2.6,4.3,4.7,8.8,6.4,13.5c10,26.5,26.6,48.2,47.7,66.8
		c22.6,19.8,41.6,43.3,56.2,69.6c10.8,19.3,16.9,39.8,16,62C1450.6,1648.4,1449.7,1653.7,1448,1658.7z M1432.1,1652.1
		c1.6,3,4.2,5.4,6.9,8.8c5-5.6,5.4-11.2,5.6-16.8c0.9-19.4-3.7-37.7-12.6-54.8c-13.9-27.1-32.7-51.2-55.6-71.3
		c-22.9-20.1-41.2-43.4-51.9-72.2c-1.6-4.2-3.9-8.2-5.8-12.2l-2,0.3c-0.7,2.7-2,5.5-2,8.2c0.1,9.9-0.6,20.2,1.4,29.7
		c7.3,34.8,24.8,64.4,49,90.1c10.7,11.4,22.4,21.9,33.4,33c11.7,11.5,20.7,25.4,26.3,40.8C1427,1641.4,1429.4,1646.8,1432.1,1652.1
		L1432.1,1652.1z"/>
	<path fill="#2A3F2A" d="M561.3,442.7c-26.5,40.1-40.8,85.1-46.3,132.8c-0.9,7.9-3.4,12.3-11.4,14.9c-16.4,5.2-32.4,11.7-49.6,18
		c-2.3-14.7-0.6-28.9,2.1-42.9c10.1-51.5,27.4-100.9,56.2-144.5c59.2-89.6,139.2-150.6,247.7-168.5c9-1.5,18.2-2.7,28.7-4.2
		c-1.8,4.5-2.8,7.3-4,10c-6.6,13.8-11.2,28.5-13.7,43.7c-0.8,5.5-2.9,8.2-8.7,8.7C671.4,318.2,609.2,370,561.3,442.7z"/>
	<path fill="#718C68" d="M343.9,1198.3l-20.2-34.9c4-7.8,8.2-15.4,11.9-23.1c11.5-24.1,18.6-49.2,15.5-76.2
		c-0.8-7.2-3.4-14.2-4.8-21.3c-0.5-2.4-0.8-5.5,0.4-7.3c10-15.1,21.8-28.9,35.2-41c11.1,31.9,14.9,62.6,8,94.6
		C381.6,1127.9,366.2,1163.6,343.9,1198.3z"/>
	<path fill="#073808" d="M1653.8,1991.2c17.3-24,10.8-45.7-4.5-67.4c2.3,0.9,4.6,1.8,6.9,2.8c12.5,5.2,25.8,6.4,39,8
		c4.6,0.4,9.1,1.6,13.4,3.4c10.4,5,12.8,16.9,5.7,26c-1.4,1.8-3.1,3.5-5,4.9C1692.9,1980.9,1673.6,1985.6,1653.8,1991.2z"/>
	<path fill="#2A3F2A" d="M753.2,750.8c-13.3,2.8-23.7,9.4-28.7,23.4c32.9-14.7,66.6-17.8,101.3-8c-8.4-6.8-18.3-9.6-28.2-12.3
		C783.1,749.8,768.3,747.6,753.2,750.8z M621.9,733.4c20.8,8,50.9-5.6,61.9-27.4C663.9,717.2,641.7,720.2,621.9,733.4L621.9,733.4z
		 M477.7,707l44.5-24.2c11.3,25.5,33.1,34,56.5,39.5c8.3,2,17.1,1.9,25.9,2.7c1.9-4.2,3.4-7.5,4.8-10.8c1.8-4.3,3.4-8.7,5.4-12.9
		c8.7-18.6,22.4-31.4,43.2-34.9c9.2-1.6,18.6-3.2,27.7-2.4c20.6,1.8,40.4,1.6,59-11.7c-0.2,2.6-0.1,3.6-0.4,4.4
		c-6.4,14.6-12.8,29.3-19.4,43.8c-7.8,17.4-20,32.5-35.4,43.8c-17.6,13-36.6,16.7-57.6,11.3c-1.6-0.4-3.4-0.5-4.8-1.3
		c-17.6-9.4-36.8-6.6-57.8-7.5c10.3,8.5,20.1,13.4,30.2,17.6c24.9,10.7,51.9,15.6,79,14.3c11.5-0.5,21.1-5.6,30.7-10.9
		c1.8-1,3.2-3.4,4.1-5.4c15.9-33.2,44.3-47.1,78.9-52c25.3-3.6,48.2,2.7,70,15c25.2,14.3,44.8,34.3,59.8,59.1
		c0.7,1.1,1.3,2.3,1.8,3.5c0.1,0.8,0.1,1.6,0,2.4c-4.9,0-9.8,0.1-14.6,0c-13-0.2-25.2,3-35.9,10.4c-29.8,20.6-62.7,24.1-97.5,19
		c-16.3-2.4-31.7-7.6-46.8-13.8c-4.2-1.8-7.8-2-12.2,0.5c-57,32-113,28.9-166.7-7.1c-33.2-22.3-55.3-54.4-72.6-90
		C477.2,709.2,477.4,708.8,477.7,707L477.7,707z"/>
	<path fill="#073808" d="M1373.3,1754.2c8.4,2.4,14.6,7.9,20.2,14.1c24.5,27,46.6,55.6,63.7,88c8.2,15.6,16.8,31,25.1,46.6
		c15.8,29.5,39.3,50.9,69.1,65.5c2.6,1.3,5,2.8,7.5,4.2h-0.1l0.2,0.2c-10,0.2-18.6-4.1-27.1-8.7c-14.8-7.9-27.4-19.3-36.8-33.2
		c-12.1-18.3-23.5-37.1-34.1-56.4c-13.1-24-26.3-47.9-43.5-69.3c-8.5-10.6-17-21.4-26.2-31.5c-4.6-5.1-10.1-10-16.1-13.1
		c-14-7.2-26.3-0.2-26.4,15.4c0,11.5,2.8,23,4.2,34.5c0.4,3.1,0.4,6.3,0.5,9.4c-3.3-11.4-6.9-22.7-9.5-34.3
		c-1.1-4.7-0.5-10,0.4-14.8C1347.4,1757.2,1359.7,1750.2,1373.3,1754.2z"/>
	<path fill="#718C68" d="M1296.6,2315c-38.4-21.1-102.2-99.5-108.4-133l34.4-20.2c10.8,24.9,25.8,47.4,43,68.5
		c17.5,21.5,36.9,41.5,57.8,59.7c-4.6,4.6-8.1,8.6-12,12.2C1306.6,2306.7,1301.4,2310.9,1296.6,2315z"/>
	<path fill="#2A3F2A" d="M1014.1,2251.6c25.9,4.6,48.2,16.9,68.3,33.4c18.2,14.9,33.3,32.6,46.7,51.8c10.3,14.7,19.8,30.1,30.2,44.6
		c12.8,17.8,26.3,35.1,40.2,53.5c-2.6,3.6-7.8,5.8-12.9,7.6c-28.9,10.1-23.9,12.2-41.8-10.8c-10.8-13.9-20.2-28.9-29.6-43.8
		c-12.2-19.5-24.3-38.9-40-55.9c-37-40.1-82.6-54.1-135.8-44.2c-5.6,1-11.1,2.2-16.6,3.3c-1.4,0-2.9,0-4.3-0.2l-14.9-34.3
		c9.6-5.3,19-6,28.1-7.2C959.1,2245.7,986.7,2246.7,1014.1,2251.6z"/>
	<path fill="#2A3F2A" d="M338,1878.1c-13.3-8-24.4-14.7-35.6-21.2c-3.6-2.1-3.8-5.1-3.5-8.5c1.5-16.2,2.5-32.5,4.4-48.7
		c5.9-50.6,15.1-100.7,29.1-149.7c0.9-3.2,1.9-6.3,3.2-10.7l33.2,25.7C351,1734.6,340.6,1806.1,338,1878.1z"/>
	<path fill="#718C68" d="M1569.5,2308.7c17.6,45.1,51.8,69.4,98.4,78c1.6,0.3,3.3,0.4,6,0.8c-1.6,2.3-2.6,4.4-4.1,5.6
		c-10.5,8.2-21.1,16.1-31.7,24.2c-4.9,3.8-10.3,4-16.1,2.7c-14.7-3.3-28.4-9.9-40.2-19.2c-28.2-21.7-44-51.1-52.6-84.9
		c-7.6-30.1-7.9-60.6-5.3-91.3c0.8-9.6,2.3-19.1,3.6-28.9l38.6,8.6c-1.4,9.9-3.2,19.8-4.2,29.7
		C1559.3,2259.3,1560.1,2284.5,1569.5,2308.7z"/>
	<path fill="#718C68" d="M1085.7,917.7c1-7.1,3.3-14,5.5-23c4.6,27.7,8.8,53.1,13.2,79.6c-9-3.4-12.9-10-16-17.3
		C1083.1,944.2,1083.8,930.9,1085.7,917.7z"/>
	<path fill="#2A3F2A" d="M1120.8,1188.9l0.1-0.1c0.1,0.1,0.2,0.3,0.4,0.4l-0.6-0.2L1120.8,1188.9z"/>
	<path fill="#718C68" d="M294.1,1755.1c-26.4-19.8-52.9-39.4-78.9-59.5c-32.9-25.4-54.2-59.2-67.9-98s-19.9-78.7-14.2-119.8
		c1.6-11.4,3.4-22.8,8.6-34.5c9.3,11.4,18.2,21.8,26.4,32.6c1.6,2.1,1.5,6.2,1.1,9.2c-4.3,29.4-3.2,58.4,5.6,87
		c9.8,31.6,25.9,59.1,52,80c24.4,19.6,49,38.9,73.6,58.3c2.9,2.3,5.9,4.3,9.6,7.1c-2.4,13.8-4.8,27.8-7.4,42.7
		C299.1,1758.1,296.4,1756.9,294.1,1755.1z"/>
	<path fill="#2A3F2A" d="M2071,1046.9c28.7,8.4,56.5,19.2,87.1,14.8c0,0.9,0,1.7,0.1,2.6c-4.9,1.1-9.7,2.5-14.6,3.4
		c-15.9,2.8-31.8,3.6-47.5-1C2085.4,1063.4,2076.1,1058,2071,1046.9z"/>
	<path fill="#718C68" d="M1402.5,2183.9c25.1,21.6,47.4,45.8,65.6,73.7c11.8,18.2,19.7,37.8,19.3,59.9
		c-0.5,32.3-24.2,63.2-55.4,71.8c-12.8,3.6-25.8,2.5-38.6-0.6c-21.1-4.9-40.1-16.1-54.6-32.2l25.2-29.6l6.7,6.3
		c7.5,7.2,16.4,12.6,26.3,16c17,5.7,33.1-0.1,41.9-15.7c9.1-16.3,7.9-32.7-1.1-48.6c-10.9-19.1-24.4-36.7-40.2-52.1
		c-16.4-16.3-34.8-29.9-54.5-42c-9.2-5.7-17.8-5.8-26,0.4c-12.6,9.3-24.6,19.3-36.8,29c-2.3,1.9-4.4,4-7.4,6.9
		c-8.7-10.7-16.6-22-23.6-33.8c22.2-21.3,46-39.2,74.2-50.7c6.8-2.8,12.9-1.2,19.2,1.7C1364.5,2154.6,1384.2,2168.2,1402.5,2183.9z"
		/>
	<path fill="#2A3F2A" d="M1478.9,1416.5l-0.1,0.4l0,0l-0.1-0.1C1478.7,1416.7,1478.8,1416.6,1478.9,1416.5z"/>
	<path fill="#2A3F2A" d="M232.2,974.1c6.2,17.8,14.3,35,22.4,54.4l-25.9,33.4c-2.2-3.8-4.2-6.8-5.8-10
		c-6.7-13.4-13.3-26.9-19.9-40.3c-4.6-9.3-10.2-10.2-16.1-1.4c-4.1,6.1-7.2,12.7-9.2,19.8c-9.6,32.4-10.6,65.4-6,98.9
		c5,36,17.6,68.8,37,99.3c8,12.6,15.7,25.5,23.7,38.7l-24.4,35c-0.9-0.7-1.7-1-2-1.5c-22.2-35.2-43.7-70.8-59-109.8
		c-11.6-29.6-15.6-60.5-15.9-92c-0.6-56.4,9.5-112.4,29.8-165.1c23.6-61.4,52-120.4,91.3-173.6c2.5-3.4,5.2-6.7,9.2-11.8
		c0.2,4.4,0.5,6.5,0.4,8.6c-1.5,23.6-0.2,47.3,3.7,70.7c0.9,4.9-0.5,8.1-3.3,11.7c-15.5,19.3-26.8,41.5-33.3,65.4
		C222.6,928,224.3,951.4,232.2,974.1z"/>
	<path fill="#2A3F2A" d="M480.8,1944c23,6.6,42.2,19.4,58.6,36.6c19.1,20.1,32.6,43.7,43.9,68.8c14.7,32.6,24.8,66.8,35.7,100.7
		c5.2,16.2,9.9,32.6,16.6,48.1c21.8,50.4,61.5,78,115,86.6c27.6,4.4,54.4-0.6,80.8-8.6c3.2-0.9,6.3-2.1,10.4-3.4l18.7,35.4
		c-3.8,2.1-7.6,4.6-11.7,6.4c-24.6,11-50.7,13.6-77.2,12.5c-59.7-2.5-115.2-19.9-167.9-47.1c-45.9-23.7-87-54.2-125.8-88.2
		c-34.9-30.6-68.7-62.2-97.8-98.5c-40.8-50.9-66.6-108.8-80.5-172.2c-0.4-2.5-0.6-5-0.6-7.5c13.6,6.8,25.6,12.6,37.2,19
		c2.4,1.3,4,5.1,4.9,8c7.8,24.9,17.4,48.9,30.1,71.8c15.4,27.9,34.5,53.1,57.9,74.8c2,1.8,4,3.6,6,5.3c0.4,0.4,1.2,0.3,2.7,0.7
		c-12.2-84.1-14.6-168.4-12.3-253.9c2.9,0.8,5.1,0.9,7,1.9c8.3,4.2,16.5,8.8,24.8,12.8c5.2,2.5,6.7,6,6.5,11.9
		c-1.1,31.3-2.3,62.6-2,93.9c0.4,41.7,3,83.2,13.1,123.9c9.8,39.9,30.9,72.8,61.8,99.3c9,7.7,19.5,13.9,29.9,19.7
		c8.7,4.9,13.2,2,13.2-8.1c-0.2-8-1.2-15.9-2.8-23.8c-8-43.4-19.3-85.8-39.5-125.3c-5.4-10.4-11.5-20.3-18.4-29.7
		c-11.4-15.8-25.9-27.7-46.9-31.8c-0.9-13.7-1.8-27.5-2.9-42.7C473.9,1942.4,477.4,1943.1,480.8,1944z"/>
	<path fill="#2A3F2A" d="M1264.4,420.8c10.2-9.2,21.9-16.5,34.6-21.7l-49.1,60.7c-3.5-3.6-2.7-7.5-2.1-11.2
		C1249.7,437.1,1256.1,428.4,1264.4,420.8z"/>
	<path fill="#2A3F2A" d="M1529.2,676.9c-10.9-23.7,1-59.7,23.8-75.2C1541.4,624.8,1540.9,651.5,1529.2,676.9z"/>
	<path fill="#2A3F2A" d="M1385.6,527.5c1.6,12.4,1.7,25.1,7,38.1c14.3-17.5,7.4-60.2-11.2-75.4
		C1382.7,502.6,1384,515.1,1385.6,527.5z M1416.5,694.8c11,16.1,22.2,16.8,34.2,1.7c4.9-6.2,8.5-13.5,12.5-20.4
		c1.6-2.7,2.9-5.6,5.3-8.1c-1.8,12.8-3.5,25.7-5.3,38.5c-0.4,2.3-1.1,4.5-2,6.6c-7.1,17.7-17.9,33.7-31.6,46.9
		c-2.6,2.6-5.5,4.9-8.5,6.9c-6.7,4.1-10,4-14.4-2.5c-5.3-8-10.3-16.4-13.8-25.3c-7.7-19.6-11.1-40.4-13.7-61.2
		c-1.5-11.9-2.7-23.8-4.2-35.7c-0.1-1.1-0.6-2.2-2.6-3.2l-2.3-1.7c7.2-10.5,10.6-22.9,12.7-35.4c1.3-7.5,1.4-15.2,2-22.8
		c-5.9-4.2-11.5-8.8-17.7-12.5c-27.4-16.4-35.3-41.2-31-71.1c1.2-8.2,3.3-16.3,6.1-24.2c7.1-20.1,11.7-40.3,7-61.6
		c1.1-0.3,1.9-0.8,2.2-0.6c15.4,13.2,31.3,25.9,45.9,40c19.4,18.8,28.3,42.4,27.4,69.5c-0.5,14.8-3.6,29.1-10.6,42.3
		c-2.1,4-3.8,8-2,12.4c2.4,5.6,1.3,10.8,0,16.4c-5.3,22.1-7.6,44.7-6.9,67.4C1405.7,670.5,1408.7,683.4,1416.5,694.8z"/>
	<path fill="#718C68" d="M618,1129.2c-25-5.4-47.1-32.8-42.2-57.1L618,1129.2z"/>
	<path fill="#2A3F2A" d="M1565.5,909.4c-5.8,25.9-8.6,56.2-6,67.4C1575.4,968.2,1577.6,933.6,1565.5,909.4z M2176.1,813.7
		c-9.2,9.3-19.6,17.5-28.2,28.4c24.3,2.6,53.7-29.4,54-56.3C2193.6,794.8,2185.1,804.5,2176.1,813.7z M2071,1046.9
		c5.2,11.1,14.4,16.6,25.2,19.7c15.7,4.7,31.6,3.8,47.5,1c4.9-0.8,9.7-2.2,14.6-3.4c0-0.9-0.1-1.7-0.1-2.6
		C2127.5,1066,2099.6,1055.2,2071,1046.9z M2015.4,1062c-3.9,26.8,4,52.4-4.1,77.1C2031,1117.5,2033.4,1080.7,2015.4,1062
		L2015.4,1062z M1869.4,961.1c-7.5,0-15.5,1-22.4,3.8c-22.4,9-45,8.1-67.7,2.9c-15.9-3.6-31.6-8.2-47.5-11.8
		c-44.5-10.2-85-0.9-119.8,28.4c-32.3,27.2-55.5,61-67.6,101.8c-4.6,15.5-6.3,31.3-3.4,47.4c0.4,2,0.6,4,1.1,5.9
		c3.2,11.9,7.2,14.3,20.4,12.1c-1,2-2.1,4-3.2,5.9c-14.1,20.3-26.2,41.8-36.2,64.3c-5.6,12.4-14.9,22.1-25.6,30.2
		c-8.3,6.2-13,3.8-14.7-6.8c-2.3-13.8,0.2-27.3,3.8-40.5c5.4-19.6,11.7-38.9,17.8-58.2c6-19.2,11-38.4,9.3-58.8
		c-1-11.9-4.9-22.6-13.9-31.4c0.7,2.6,1.2,5.3,2.1,7.8c8.2,24.2,8.1,48.3,0.3,72.6c-6.8,20.9-13.6,41.8-19.6,62.9
		c-2.9,10.6-4.9,21.4-6,32.3c-0.6,6.3,0,12.6,1.8,18.7c3.2,10.4,12.5,13.2,21.3,6.8c4.5-3.3,8.3-7.6,14.3-13.3
		c-3.2,10.4-5.8,18.5-8.2,26.7c-0.6,2.1-1.2,4.1-1.8,6.2c-1.8,6.2-3.5,12.5-5.2,18.7l0,0h-0.1c-0.1,0-0.1,0.1-0.2,0.2
		c-3.1,1.4-7,2.2-9,4.6c-4.7,5.6-8.9,11.6-12.4,18c-4.2,7.5-7.4,15.7-11.4,23.3c-2.4,4.7-5.4,9.2-8.8,13.3
		c-4.6,5.4-8.5,5.3-11.8-0.8c-3.6-6.3-6.1-13.2-7.5-20.4c-2-11.4-2.6-23.2-3.6-34.8c-2.9-34.6-0.8-68.6,10.5-101.7
		c5.1-14.8,10.6-29.4,16.3-44c6.3-16.1,12.9-32.2,15.5-49.5c1.9-12.4,2.5-24.8-2.1-36.8c-1,8.7-1.1,17.3-1.9,25.9
		c-2.4,22.8-9.8,44.2-19.3,64.9c-23.5,51.5-30.1,105.3-23.3,161.1c1.3,10.8,4.2,21.5,7.2,32.1c1.7,6.2,5.3,12,12.6,12.8
		c7.1,0.7,11.7-4.2,15.3-9.6c2.4-3.6,4.5-7.4,6.3-11.3c2.5-5.5,4.1-11.3,6.9-16.6c4.8-9.1,10.1-18,15.4-26.7c1-1.7,3.3-2.6,5.1-3.8
		l0.2-0.1c-3.4,18.9-7.2,37.8-9.9,56.8c-2.4,16.8-3.9,33.7-5.5,50.6c-0.3,3.4-0.6,6.8-1.9,9.9c-0.5,1.3-1.3,2.5-2.2,3.6l-0.3,0.3
		l0,0l0.1,0.1c-1.9,6.8-3.9,13.6-5.8,20.4c-1.8,6.4-2.9,13.1-5.4,19.2c-2.9,7-7.4,8-13.5,3.6c-3.7-2.8-7.1-6-10.1-9.6
		c-29.6-33.8-46-73.6-53.1-117.7c-8.8-54.2,0.4-105.4,23.6-154.6c7.4-15.7,15.2-31.2,22-47c9.4-21.9,16-44.5,14.4-68.8
		c0-0.9,0.2-1.8,0.5-2.6c26.1,1.8,48.7-5,66.6-24.7c10.3-11.4,18.8-24.4,25.1-38.4c2.9-6.3,2.4-11.3-2.2-16.4
		c-3.6-4-6.7-8.3-9.9-12.6c-13.6-18.6-17.5-38.7-8.5-60.3c3.8-9.2,8.1-18.4,13.8-26.4c10.4-14.6,17.2-30,16.8-48.1
		c0.1-0.9,0.4-1.7,0.7-2.5c0.9,0.3,1.7,0.3,2,0.7c10.4,14.3,20.9,28.4,31,43c11.2,16.3,16.9,34.5,18.1,54.3
		c1.1,17.2-4,32.3-15.2,45.2c-4.8,5.5-9.8,11.1-15.8,15.2c-7.9,5.5-10.4,13-12.2,22.8c19.1-11.8,36.9-23.5,49.4-41.2
		c7.3-10.3,13.4-21.4,20.2-32.1c3-4.6,2.5-8.6-0.2-13c-2-3.1-3.7-6.3-5.5-9.5c-17.3-30.5-18.7-61.3-1.4-92.2c4.5-8.1,9.7-16,15-23.6
		c13.1-18.9,24.2-38.5,23-63.3c1.5,1.5,2.8,3.1,4,4.8c7.8,12.8,15.7,25.6,23.3,38.5c13.1,22.1,22.3,45.6,21.2,71.8
		c-1.3,31.6-12.4,58.4-39.2,77.2c-2.4,1.7-4.7,3.8-7.3,5.3c-6.9,3.8-8.8,10.1-10.1,18.3c3.6-1.7,6.2-2.8,8.8-4.1
		c13.4-6.6,26.9-13.1,40.2-20c5.9-3.1,12.5-4.4,19.2-3.9c21.7,1.4,43.3,0.9,64.7-3c26.9-4.9,49.3-17.9,68.1-37.3
		c4.1-4.3,9.5-7.1,15.4-7.9c48.8-8.1,98-10.8,147.3-11.4c33.6-0.4,66.2-6.2,97.7-18.4c2.8-1.1,5.5-2.3,8.2-3.6
		c0.8-0.5,1.6-1,2.3-1.6c0.8-7.8,0.9-15.5,2.3-22.9c5.3-26.6,20.5-45.8,44.9-57.6c3-1.5,6.1-2.8,9.2-3.9
		c16.9-6.4,33.6-13.1,44.2-29.4l2,0.7c1.2,9.3,2.7,18.6,3.5,28c1.9,21.2,0.3,41.9-8.8,61.6c-13.7,29.6-36.3,45.4-69.3,44.5
		c-8.4-0.2-14.7,2.5-21.5,9.2c6.4,1,11.8,1.8,17.1,2.7c21,3.4,42,7.1,63.1,10.2c25.9,3.8,50.6-0.1,73.1-13.8
		c22.1-13.5,34-34.2,38.9-59.1c1.2-6.2,1.9-12.5,2.9-19.3c1.2,0.3,2.6,0.2,3.5,0.8c18,11.8,34,25.7,46.6,43.2
		c3.2,4.2,4.6,9.5,3.8,14.7c-2.4,21.9-7.6,43.4-15.5,63.9c-17.7,45.6-9.8,86.8,20.4,124.5c0.6,0.8,1.1,1.6,2.2,3.3
		c-4.6,12.4-9.3,25.4-14.5,39.6c-3.6-3.9-6.1-6.4-8.5-9.1c-61.9-69.3-137.5-115-229-133.4c-41.9-8.6-84.7-11.1-127.3-7.6
		c-24.2,2.1-48.3,5.2-74.1,8.1c2.2,2.5,2.8,3.7,3.7,4.1c18.1,8.1,33.9,19.9,49.1,32.3c18.1,14.8,36,29.6,54.1,44.4
		c3.4,2.7,7.1,5,10.5,7.6c3,2.3,5.8,2.5,9.2,0.6c7.3-4,14.7-7.8,22.3-11.2c8.5-3.8,17.1-7.6,26-10.3c18-5.7,37.3-5.1,54.9,1.7
		c8.1,3,16,6.7,23.8,10.3c16.4,7.6,33,14.5,52.6,12.8c-1.1,2.6-1.6,4.4-2.6,5.9c-14,20-31.3,36.4-52.9,47.8
		c-38.2,20.2-75.1,16.8-110-8.2c-8-5.8-15.1-13.1-21.6-20.6c-5.5-6.4-11.3-12-19-15.7c-4.4-2.2-8.6-5-13.8-8.1
		c0,7,1.6,11.9,5.6,16.8c6.3,7.3,11.9,15.2,16.9,23.4c7.6,13.2,8.7,27.7,5.5,42.6c-4.1,19-12.1,36.1-25.7,50
		c-13,13.3-26.9,25.7-40.1,38.2c0.1-0.6,0.2-2.6,0.5-4.5c2.1-15.3-0.8-30.9-8.2-44.4c-3.3-6.2-6.7-12.3-9.4-18.7
		c-12.8-30.1-5.1-58.4,20.8-78.2c3.9-3,7.6-6.3,11.9-9.8c-9.2-24.3-19.5-46.4-42.6-61.2C1929.8,970.7,1901.1,961,1869.4,961.1
		L1869.4,961.1z M1651.8,922.1c19.5-11.7,26.8-57.9,18.4-85.1c-3.3,12.5-6.8,25-9.9,37.5c-3,12.3-5.8,24.6-8.4,37
		C1651.2,914.7,1651.8,918.2,1651.8,922.1L1651.8,922.1z"/>
	<path fill="#718C68" d="M2429.4,1352.1c7.7-11.9,15.4-23.7,23.7-36.6c1.6,2,3.1,4,4.5,6.2c15.2,27.3,30.3,54.7,45.5,82
		c20.9,37.5,28.5,77.8,25.6,120.3c-2.7,40-12.6,78.1-32.3,113.3c-6.6,11.9-14.1,23.2-25.2,34.6c-3.6-14.8-7.1-28-9.8-41.3
		c-0.6-3,1.2-7.1,3-9.9c13.6-21,22.9-44.5,27.4-69.2c6.4-35.7,3.5-70.4-12.6-103.2c-13.6-27.8-28.2-55.1-42.4-82.6
		C2434.6,1361.4,2432.1,1357.1,2429.4,1352.1z"/>
	<path fill="#2A3F2A" d="M1357.6,1828.1l2.7,4.8L1357.6,1828.1z"/>
	<path fill="#718C68" d="M1463.2,916.3c-4.5-15.7-4.1-31.6-1.6-47.5c2.6-16.1,8-31.7,15.8-46c14.7-27.2,37.1-44,67.4-49.9
		c12.7-2.5,25.6-4,38.3-6c0.4,0.7,0.7,1.3,1.1,2c-52.1,42.1-91.6,93.4-116.4,158.7C1465.6,922.4,1464.1,919.4,1463.2,916.3z"/>
	<path fill="#718C68" d="M2353.9,1183.5c22.4,25.9,43.2,53.2,64.7,79.9c1,1.4,1.9,2.8,2.7,4.2l-23,35.8c-4.1-5.4-7.4-9.9-10.8-14.2
		c-18.2-23.4-35.9-47.1-54.7-70c-30.6-36.9-50-81.7-56-129.2c-3.3-25.1-3.4-50.6-0.3-75.7c0.2-1.6,0.6-3.1,1.3-6.2
		c7.4,5.4,14.2,10,20.7,15.1c6.8,5.3,13.1,11.1,19.7,16.7c-0.6,8.3-0.9,16.6-2,24.8C2310.1,1110.3,2324.1,1149,2353.9,1183.5z"/>
	<path fill="#718C68" d="M1619.4,493.2c8.5-4.6,17.4-8.5,25.4-13.9c8.4-5.8,15.9-12.9,23.2-19c-3.9,27.2-40.5,52.5-69.4,44.5
		C1606.7,500.2,1613,496.6,1619.4,493.2z"/>
	<path fill="#2A3F2A" d="M227.2,1712.9c3.7,3,3.5,6.8,3.7,10.8c2.5,43,17.3,81.1,45.3,113.9c11.3,13.3,24.3,24.8,39.9,32.8
		c30.2,15.4,60.7,30.5,91,45.7c3,1.5,6,2.8,9.6,4.4c0.8,14.1,1.6,28.2,2.4,43.2c-3.2-0.9-5.2-1.3-6.9-2
		c-32.4-13.3-64.1-27.8-95.1-44.1c-36.8-19.4-64.7-47.7-85.7-83c-22.9-38.4-36.4-79.8-37.4-124.9c-0.2-7.3,0-14.6,0-21.8l2.9-0.8
		C206.9,1695.8,216.9,1704.5,227.2,1712.9z"/>
	<path fill="#718C68" d="M868.9,452.5c10.4,27.7,30.7,48.3,45.5,74.7C912.5,493.2,890.9,457.9,868.9,452.5z M869.1,426.5
		c12.2,1.5,24.2,5,35.3,10.3c16.4,7.8,29.4,21.5,36.3,38.3c7.8,18.4,12,37.7,9.6,57.5c-2.5,20.9-1.2,40.5,10.4,59.3
		c-26.8-6.9-53.5-12.9-76.8-27.8c-23.5-15-35.5-37.3-38.9-64.5c-1.6-13.2-2.6-26.5-3.5-39.8c-0.3-5.3-2.8-8.2-7.1-11
		C802.1,428,786,396.8,779.1,360c-3.8-20.3-2-40.6,3.1-60.4c16.4-64.5,54.3-111.7,114.2-141.1c34.4-16.9,71-26.7,108.8-31.5
		c33.2-4.3,66.4-5,99.6-0.2c7.4,1.1,14.8,2.7,23.6,4.4c-2.2,1.9-3,2.9-4.1,3.5c-18.4,10.4-34.6,23.7-49.9,38.1c-4.2,4-8,5.4-14,4.4
		c-53.1-8.9-102.5,2.5-148.9,28.9c-14,7.9-26.4,18.2-36.9,30.4c-27.3,31.8-45.7,68.2-52.4,109.4c-6.5,39.9,9.6,58.7,36.5,77.9
		C861.4,425.6,865.5,426,869.1,426.5z"/>
	<path fill="#2A3F2A" d="M2011.2,1139.1c8.1-24.8,0.2-50.3,4.1-77.1C2033.4,1080.7,2031,1117.5,2011.2,1139.1z"/>
	<path fill="#2A3F2A" d="M2201.8,785.8c-0.3,26.9-29.7,58.8-54,56.3c8.6-10.9,19-19.1,28.2-28.4
		C2185.1,804.5,2193.6,794.8,2201.8,785.8z"/>
	<path fill="#2A3F2A" d="M1478.9,1416.9L1478.9,1416.9L1478.9,1416.9L1478.9,1416.9z"/>
	<path fill="#2A3F2A" d="M1478.9,1416.5c0,0.2,0,0.3,0,0.5h-0.1L1478.9,1416.5z"/>
	<path fill="#2A3F2A" d="M1841.3,2151.7c1.9,12.3,1.1,24.6-1.1,36.8c-4.2,22.3-10.4,44.1-18.6,65.2c-1.2,3.1-2.6,6-4.1,9.6
		l-42.4-13.7c2.5-6.8,5-12.6,6.7-18.6c2.1-7.7,4.3-15.4,4.9-23.3c0.9-12.2-5-19.7-16.8-22.4c-45.6-10.7-85.4-33.1-122.9-60.2
		c-8.6-6.2-16.3-13.6-25.1-21.1c8.3-11.3,18.1-19.6,28-29c2.3,2.1,4.5,3.9,6.5,6c34.9,36.2,77.6,55.5,127.6,58
		c13.6,0.7,27.3-0.1,40.9-0.6C1836.6,2137.9,1839.5,2140,1841.3,2151.7z"/>
	<path fill="#718C68" d="M1275.9,1914.1c5.6,25.2,12.7,38.1,33.5,63.8c-9.5-6-16.6-14.1-22.4-23.5c-10.1-16.1-15.2-33.9-18.1-52.5
		c-3.8-24.6-1.6-49.2,0.5-73.8c5-58.7-5.1-114.9-29.3-168.4c-8.1-17.8-18.6-34.6-28.7-51.4c-3.1-5.2-8.1-9.8-13.1-13.3
		c-5.5-3.7-9.2-1.7-11.1,4.8c-1.7,6.1-2.8,12.3-4.3,18.5c-4.7,19.6-16.2,37-32.3,49.1c-1.3,1-2.7,1.9-4.2,2.7c-0.5,0.3-1.2,0-3.2,0
		c2.1-2,3.5-3.4,5-4.7c18.1-15.7,29-35.4,33-58.9c0.4-2.6,0.9-5.3,1.5-7.9c2.4-10,9.9-13.9,18.7-8.4c6.2,3.8,11.5,9,15.5,15.1
		c8.9,14.1,17,28.6,24.3,43.6c22.3,45.6,34.2,93.8,34.6,144.6c0.2,21.6-2.2,43.2-3.6,64.8C1270.7,1877,1272,1895.8,1275.9,1914.1z"
		/>
	<path fill="#718C68" d="M868.9,452.5c22,5.4,43.5,40.7,45.5,74.7C899.6,500.8,879.3,480.2,868.9,452.5z"/>
	<path fill="#718C68" d="M1627.5,1863.7c4.2-0.5,8.5-0.8,12.7-1.2c-35.8,9.1-69.7,4.8-101.6-13c-36.2-20.2-66.8-47.3-93.4-78.8
		c-16.1-19.1-30.9-39.3-46.3-58.9c-6-7.6-11.7-15.4-18.2-22.5c-4.4-4.9-9.6-9.2-15.3-12.5c-9.6-5.5-18.8-3.3-25.9,5.2
		c-9.6,11.4-13.5,25.1-14.5,39.6c-1.4,20.8,2.2,41.1,6.8,61.3c0.8,2.6,0.7,5.4-0.2,8c-1.1-3.6-2.4-7.2-3.4-10.9
		c-6.5-23.7-10.5-47.7-5-72c2.1-9.4,5.8-18.4,10.8-26.6c8.8-14.4,21.8-17,36-8c6.5,4,12.4,9,17.4,14.8
		c10.5,12.5,20.3,25.5,29.9,38.7c29.1,39.7,61.6,76.1,102,104.7c16.4,11.6,33.6,21.5,52.9,27.5
		C1590.3,1864.7,1608.7,1865.9,1627.5,1863.7z"/>
	<path fill="#213321" d="M1793.9,439c-13.4,27.2-34.3,48.8-45.9,76C1746,482.4,1768.9,444.1,1793.9,439z"/>
	<path fill="#2A3F2A" d="M825.8,766.2c-34.7-9.8-68.3-6.7-101.3,8c5-14,15.4-20.5,28.7-23.4c15-3.2,29.8-1,44.4,3
		C807.5,756.5,817.4,759.4,825.8,766.2z"/>
	<path fill="#073808" d="M1120.8,1188.9l-0.1,0.1l0,0C1120.7,1189,1120.7,1189,1120.8,1188.9z"/>
	<path fill="#718C68" d="M1447.9,148c-5.9,2.5-10.9,3.1-17.1,0.9c-21-7.6-42.4-13.6-64.6-16.8c-57.5-8.1-112.1,1.3-164.2,26.4
		c-45.1,21.7-83.3,52.4-117.3,88.8c-12.5,13.4-24,27.7-36,41.5c-1.1,1.2-2.2,2.4-3.6,3.8l-44.4-17.2c0.6-1.7,0.9-3.3,1.8-4.5
		c42.3-57.5,91.9-107.2,153.8-143.6c64.9-38.2,134.8-51.9,209.4-43.1c43.7,5.2,85.4,17.4,125.4,35.4c3.9,1.7,7.6,3.9,12.7,6.5
		l-8.6,3.3C1479.5,135.6,1463.6,141.4,1447.9,148z"/>
	<path fill="#718C68" d="M1816,1033.2c25.1,2,46.2,13.2,64.7,29.6c-0.2,0.7-0.5,1.3-0.7,2c-4.8-2-9.5-4.2-14.4-5.9
		s-10.1-3.4-15.2-4.8c-5.4-1.4-11-2.5-16.5-3.6c-5.2-1-10.4-1.8-15.7-2.7c-5.6-0.9-11.1-1.8-16.7-2.7c-5.2-0.9-10.3-1.8-15.5-2.8
		C1795,1034,1805.3,1032.3,1816,1033.2z"/>
	<path fill="#2A3F2A" d="M1432.2,1589.4c8.9,17.2,13.5,35.4,12.6,54.8c-0.3,5.5-0.7,11.2-5.6,16.8c-2.7-3.4-5.4-5.8-6.9-8.8
		c-2.7-5.3-5.1-10.8-7.2-16.5c-5.6-15.4-14.6-29.3-26.3-40.8c-11.1-11.1-22.7-21.6-33.4-33c-24.2-25.7-41.6-55.3-49-90.1
		c-2-9.6-1.3-19.8-1.4-29.7c0-2.7,1.3-5.4,2-8.2l2-0.3c2,4.1,4.2,8,5.8,12.2c10.7,28.8,29,52.1,51.9,72.2
		C1399.5,1538.1,1418.3,1562.3,1432.2,1589.4z"/>
	<path fill="#2A3F2A" d="M1559.2,1972.8h-0.2l-0.2-0.2L1559.2,1972.8z"/>
	<path fill="#718C68" d="M715.3,1033c-6.5,14-9.1,29.5-7.4,44.9c8.3-25.1,26-45.1,38-71.1c-5.6,2.2-9,3-12,4.7
		C725.1,1016.4,719.4,1024.1,715.3,1033z M575.8,1072c-4.9,24.2,17.2,51.7,42.2,57.1L575.8,1072z M1208.2,1668.9
		c-7.2-9-19-9.4-27.1-1.1c-3,3.1-5.5,6.7-7.4,10.6c-2.6,5-4.5,10.4-6.7,15.6c-12.1,29.5-32.7,50.6-62.4,62.5c-2.4,1-4.8,2-7.2,3
		c1.9,0.8,4,1,5.9,0.5c13.3-3.2,25.7-9.6,36.1-18.5c14.3-12.1,25.3-27.6,32.1-45.1c3-7.7,6.2-15.6,10.9-22.3
		c6.8-9.8,17.3-9.5,23.8,0.5c4.1,6.3,6.9,13.6,9.2,20.9c22.1,70.1,27.7,141.5,16.1,214.2c-1.3,8.2-1.9,16.4-2.8,24.6l1.4,0.4
		c0.9-2.4,2.2-4.7,2.6-7.1c2.9-16.7,6.4-33.4,8.1-50.2c3.4-33.2,2.2-66.5-1.8-99.7c-3.9-31.8-11-62.9-22.2-93
		C1214.8,1679,1211.9,1673.7,1208.2,1668.9L1208.2,1668.9z M1088.4,956.9c3,7.3,7,13.9,16,17.3c-4.4-26.4-8.6-51.8-13.2-79.6
		c-2.2,9-4.5,15.9-5.5,23C1083.8,930.9,1083.1,944.2,1088.4,956.9L1088.4,956.9z M1268.9,1901.9c2.9,18.6,8,36.4,18.1,52.5
		c5.8,9.3,12.9,17.5,22.4,23.5c-20.8-25.7-28-38.6-33.5-63.8c-3.9-18.3-5.2-37-3.9-55.6c1.4-21.6,3.8-43.2,3.6-64.8
		c-0.4-50.7-12.3-99-34.6-144.6c-7.3-14.9-15.5-29.5-24.3-43.6c-4-6.1-9.3-11.2-15.5-15.1c-8.8-5.5-16.3-1.6-18.7,8.4
		c-0.6,2.6-1,5.2-1.5,7.9c-4,23.6-14.8,43.3-33,58.9c-1.5,1.3-2.9,2.7-5,4.7c2,0,2.7,0.2,3.2,0c1.5-0.8,2.9-1.7,4.2-2.7
		c16.2-12.1,27.6-29.5,32.3-49.1c1.5-6.1,2.6-12.4,4.3-18.5c1.9-6.5,5.6-8.5,11.1-4.8c5.1,3.5,10,8,13.1,13.3
		c10.1,16.8,20.6,33.6,28.7,51.4c24.3,53.5,34.4,109.7,29.3,168.4C1267.4,1852.7,1265.1,1877.3,1268.9,1901.9L1268.9,1901.9z
		 M973.9,1874.9l-0.3,1.8c7.1,1.3,14.1,3.4,21.3,3.8c45.8,2.3,87.2-9.7,121.7-40.6c16.4-14.7,28.1-6.6,32.9,9.1
		c0.1,0.3,0.3,0.6,0.3,0.9c6.9,24.1,9.6,48.7,2.4,72.9c-8.6,28.8-23.2,53.3-55.1,61.8c-0.5,0.1-0.9,0.8-1.8,1.6
		c9,1.5,16.6-1.3,23.7-5.5c8.8-5.1,15.7-12.3,21.5-20.6c25-35.8,25.9-74.7,13.1-114.6c-6-18.7-21.6-26.3-40.3-9.9
		c-37.5,32.8-81.8,44.4-130.8,39.8C979.7,1875,976.8,1875,973.9,1874.9L973.9,1874.9z M965.5,858.7c1.2,8.7,4.9,17.2,8.5,25.3
		c2.4,5.3,6.7,9.6,13.6,12.4c-1.5-14.9-9-26.9-11.9-40s-4.4-26.7-6.5-40C964.1,830.2,963.4,844.6,965.5,858.7L965.5,858.7z
		 M516.5,1107.3c-22.5,17-37.4,40.9-62.1,54.6c19.2-2.7,36-10.7,49.4-24.9c5.6-5.9,9.8-12.7,11.5-20.7
		C515.9,1113.3,516.1,1110.3,516.5,1107.3z M505.2,849.8c3.2,0.8,6.8-0.3,10.2-0.5c-24.6-19.4-53.1-32.7-69.1-60.9
		c5.8,23.3,17.7,42.3,38.4,54.5C490.7,846.6,498.2,848.1,505.2,849.8z M1365.4,1676.7c5.7,3.4,10.9,7.6,15.3,12.5
		c6.5,7.1,12.2,14.9,18.2,22.5c15.4,19.6,30.2,39.8,46.3,58.9c26.6,31.5,57.2,58.6,93.4,78.8c31.9,17.8,65.7,22.1,101.6,13
		c-4.2,0.4-8.5,0.8-12.7,1.2c-18.8,2.1-37.2,1-55.3-4.6c-19.3-6-36.5-15.9-52.9-27.5c-40.4-28.6-72.9-65-102-104.7
		c-9.6-13.2-19.4-26.2-29.9-38.7c-5-5.8-10.9-10.8-17.4-14.8c-14.2-9-27.2-6.4-36,8c-5,8.2-8.6,17.2-10.8,26.6
		c-5.4,24.3-1.5,48.3,5,72c1,3.7,2.2,7.3,3.4,10.9c0.9-2.6,1-5.4,0.2-8c-4.5-20.2-8.2-40.5-6.8-61.3c1-14.6,4.8-28.2,14.5-39.6
		C1346.6,1673.5,1355.7,1671.3,1365.4,1676.7z M1886.1,1928.2c56.7,6,110.5-3.2,160.1-31.5c45.1-25.7,89.3-53.2,133.9-79.9
		c1.4-0.8,2.9-1.6,5.6-3.1c0.9,5.8,2,10.8,2.5,15.8c0.8,7.6,3.7,16.2,1.1,22.6c-2.3,5.8-10.6,9.3-16.5,13.5
		c-95.4,68.7-163.3,157.6-200.1,269.9c-18.7,57.1-41.9,112.3-71.3,164.8c-17.3,31-37.1,60.1-64.3,83.5
		c-31.2,27-66.8,44.8-107.5,51.9c-3.6,0.6-7.3,0.9-10.9,1.1c-1.2,0.1-2.4-0.3-4.9-0.7c3-3.1,5.3-5.4,7.4-7.8
		c11.3-13.1,22.4-26.4,33.8-39.4c1.9-2.2,3.9-4.8,6.5-5.8c22.8-9.3,40.7-25.3,57.5-42.4c22.1-22.6,38.3-49.4,52.1-77.7
		c26.4-54.2,44-111.4,57.9-169.9c3.4-14.2,6.7-28.6,8.9-43c1.1-7.5,0.8-15.2-0.9-22.6c-2.2-9.8-8.7-11.4-16-4.5
		c-10.4,9.8-20.4,20.2-30.7,30.1c-26.8,25.6-55.4,49.1-85.6,70.5c-6.4,4.5-12.4,6.5-20.2,5.6c-16.9-1.9-33.7-3.9-51.8-9.6
		c3.8-2,6.2-3.4,8.7-4.6c20.3-9.1,38.6-21,53.8-37.4c11.3-12.1,20.5-25.5,24.3-41.9c1.1-4.5,1.6-9.2,1.6-13.8
		c-0.2-12.8-6.4-21.2-18.5-25.7c-14.4-5.3-28.8-4.1-43.3-0.5c-16.6,4.2-32.1,11.3-46.7,20c-41.1,24.4-77.1,56.6-106,94.6
		c-8.2,10.8-14.7,22.9-22.7,35.6c-12.1-0.5-25.2-3.3-39.2-8.1c2.6-6.8,4.8-13.3,7.5-19.6c8.5-19.4,20.7-36.5,34.6-52.3
		c15.9-18,32.9-35,48.3-53.3c8.9-10.6,18.3-18.1,32.3-20.9c10.9-2.2,21.5-7.1,31.6-12.1c6.8-3.4,12.9-8.1,17.9-13.8
		c10.5-12.7,5.4-28.4-10.4-33.1c-6.9-2.1-14.4-2.9-21.6-3.4c-13.8-1-26.7-5.5-39.5-10.3c-3.2-1.2-6-4-8.6-6.5
		c-16.1-15.5-35.2-27.7-56.1-35.7c-5.9-2.3-12-4-18.2-5.1c-14.4-2.4-23,3.9-23.4,18.5c-0.2,10.9,0.3,22.2,3.2,32.6
		c4.2,15,11,29.2,16.5,43.8c0.7,1.9,4.3,4.3,0,6.2c-2.5-1.4-4.9-3-7.5-4.2c-29.9-14.7-53.4-36-69.1-65.5
		c-8.3-15.6-16.8-31-25.1-46.6c-17.1-32.3-39.2-61-63.7-88c-5.6-6.2-11.8-11.7-20.2-14.1c-13.6-3.9-25.9,3-28.7,16.8
		c-1,4.8-1.5,10.1-0.4,14.8c2.7,11.6,6.2,22.9,9.5,34.3l0,0c0,0.3,0,0.6,0,1l-1-0.6c-0.3-0.2-0.6-0.4-0.8-0.5
		c-0.4-0.3-0.8-0.6-1.1-1c-12.3-14.1-36.6-8.5-45.2,5.3c-0.9,1.4-2,2.6-4,5.4c2.1-10.5,4.1-19.3,5.4-28.2
		c4.6-31.6,0.4-62.6-9.2-92.7c-5.7-17.8-12.5-35.1-20.4-52c-22-46.9-40.7-94.9-51.3-145.7c-13-62.1-16.8-124.9-8.3-187.8
		c3.7-27.3,11.5-54,18.2-80.8c8.7-34.6,13-69.3,9.1-104.9c-2.6-23.3-8-45.9-17.3-67.5c-0.8-1.8-1.7-3.6-2.7-5.3
		c-0.2-0.4-0.9-0.6-2.3-1.5c0.8,3.2,1.3,5.8,2.1,8.2c11.2,33.9,16.1,69.6,14.4,105.3c-1.1,24.8-6.7,48.8-13.2,72.6
		c-7.3,26.7-14.8,53.3-17.7,80.9c-2.8,28.2-3.6,56.5-2.5,84.8c3,87.4,26.4,169.3,65.3,247.3c13.8,27.6,24.2,56.2,28.5,87
		c3.6,25.3,2.3,50.6-1.7,75.6c-1.8,10.5-4.1,20.8-7,31.1c-7.4,27.1-4.7,53.5,4.8,79.4c11,30.1,28.8,56.2,49.4,80.4
		c27.2,31.9,58.2,59.6,92,84.1c2.7,1.9,5.3,3.9,9,6.6L1431,2143c-3.5-2.1-6.1-3.4-8.5-5.1c-70.2-48-131.2-105.7-181.2-174.7
		c-7-9.7-14.2-19.4-22-28.4c-12.7-14.6-19.3-15.2-36.2-4c0.9-3.2,1.4-5.6,2.2-7.8c15.5-42.7,14.4-85.6,1.1-128.5
		c-2-6-5.1-11.6-9.2-16.4c-6.8-8.3-15.9-9.5-25.1-4.1c-3.5,1.9-6.6,4.5-9.2,7.5c-21.3,26-50.3,34.8-82.2,37.3
		c-4.9,0.4-9.8,0.8-16.2,1.4c8,3.2,18.7,4,30.9,2.2c26.4-3.9,50.3-12.9,68.1-34c3-3.6,6.5-6.7,10.4-9.2c7.1-4.7,14.6-4.1,19.5,2.9
		c4.6,6.5,8.1,13.7,10.3,21.3c9.7,36.1,10.9,72.4,0.1,108.5c-4.3,14.4-6.8,29-9.1,43.8c-3.3,21.4-0.3,42.6,3.1,63.6
		c4.6,27.6,11.3,54.8,20,81.4c0.5,1.6,0.8,3.2,1.2,4.6c-8.2,7.5-21,13.8-35.6,17.6c-1.6-3.3-3.5-6.7-4.8-10.3
		c-9.2-26.4-18.3-52.8-27.5-79.2c-1.5-4.2-1.4-9.9-7.1-11.1c-6.1-1.2-7.4,4.7-10,8.2c-20.4,27.4-43.8,51.9-71.9,71.7
		c-13.1,9.2-25.7,19-38.4,28.7c-4.3,3.2-8.4,4.1-13.9,2.8c-15.2-3.7-30.2-7.6-46.3-14.7c4.1-2.6,6.9-4.5,9.9-6.3
		c23.7-13.6,46.4-28.9,67.9-45.8c54.9-43.4,85.6-100.9,98.4-168.8c0.5-1.9,0.8-3.9,0.9-5.9c-0.5-15.6-6-22.7-21.8-20.8
		c-26.5,2.8-51.1,15-69.4,34.2c-13.7,14.2-30,21.6-48,27.1c-5.7,1.8-11.7,3.1-17.1,5.4c-13.5,5.9-18.2,18.5-10.9,31.3
		c3.6,6,8.3,11.2,13.9,15.4c12.1,9.3,26.2,14.4,41.4,16.1c4.3,0.3,8.3,2.3,11.1,5.6c7.2,7.9,14.7,15.3,22.5,23.3
		c-9.4,12.2-19.3,23.2-31.8,32.5l-8.4-7.3c-30.8-26.9-65.2-47.3-105.3-56.9c-9.4-2.2-19-3.3-28.7-3.1c-19.5,0.3-29.7,13.2-26.5,32.5
		c1.9,11.2,6,21.9,11.9,31.6c9.7,15.9,22.8,28.4,37.5,39.7c31.5,24.1,67.9,36.2,106.1,44c22.3,4.6,44.8,6.7,67.6,5.4
		c1.6-0.1,3.2,0,5.5,0c4.5,15.2,8.9,30,13.7,46.1c-5.2,0.2-9,0.5-12.9,0.6c-61.4,0.5-118.8-14.8-171.8-45.4
		c-57.2-33-108.8-73.3-153.1-122.6c-2.4-2.8-5.2-5.2-8.3-7.1c-6.3-3.7-12.3-1.6-14,5.6c-1.5,6.1-1.9,12.5-1.2,18.7
		c6.9,62.2,24.8,121.2,52.3,177.3c7.2,14.6,15.6,28.7,23.4,43c1.6,2.9,3.1,5.7,5.3,9.7c-5.4,1.1-9.8,2.6-14.2,2.8
		c-10,0.4-20,0.1-30,0.2c-4.9,0.1-7.8-1.9-10.3-6.1c-29.3-50.5-55.6-102.4-74.2-158c-18.2-54.5-43.1-105.5-79.7-150.1
		c-33.3-40.5-73.4-73.5-116.8-102.5c-14.1-9.4-29.2-17.2-44.2-25.1c-27.4-14.4-55.1-28.2-83.5-42.7c2.1-14.8,4-28.5,6.1-43.2
		c3.3,1.4,5.6,2.3,7.8,3.4c62.6,31.6,123.6,65.7,181.6,105.1c35.9,24.4,74.2,44.5,116,57.5c40.3,12.5,81.5,17,123.4,11.3
		c7.9-1.2,15.4-3.9,22.2-8.1c17.2-10.7,36-14.9,55.6-17.8c57.4-8.6,109.8-29.7,155.3-66.3c49.4-39.9,86.5-89.3,112.5-147.1
		c22.9-51,36.5-104.6,44.3-159.8c5.3-37.6,7.2-75.7,5.9-113.7c-1.9-60-10.7-118.7-35.2-174.2c-0.6-1.4-0.3-3.1-0.4-4.7l7.3,3.9
		c2.7,1.9,5.1,4.3,8,5.5c8.9,3.6,15.8,0.6,19.4-8.3c2-4.9,2.8-10.3,4.5-15.3c3.9-11,7-22.3,12.2-32.6c13.7-27,12.3-53.2-2-79.3
		c-7.8-14-17.6-26.8-29.3-37.8c-27.2-26.1-56.4-50-88.9-69.3c-21-12.5-43.3-22.1-67.8-25.6c-18.7-2.7-37.3-1.3-55.8,1.7
		c-24.1,3.9-48.2,6.7-72.6,6.9c-4.3,0-8.6-0.3-12.9-0.9c-35.9-4.5-68.7,3.3-99,24.3c0.8,5,1.8,9.8,2.4,14.7
		c4.4,31.7-6.2,57.6-30.4,78.1c-4.7,3.8-9.5,7.3-14.6,10.6c-13.7,9.3-25.8,20.1-32.3,37.4c-1.3-2-2.5-4.2-3.6-6.4
		c-9.1-22.7-16.9-45.6-16-70.6c0.5-16.4,5.1-32.4,13.4-46.5c9.2-15.9,23.8-25.4,41.1-29.6c12.8-3.1,24.9-8.9,35.3-17
		c11-8.3,24-14,36.6-21.1c-1.7-0.6-3.6-1.5-5.6-2c-29.3-7.8-58.9-14.7-89.1-17.6c-34.4-3.3-67.1,2.9-96.4,22.2
		c-7.7,5.1-14.6,11.6-21.5,17.8c-12.9,11.8-17.8,27.1-17,44.2c0.4,7.9,2.2,15.8,3.3,23.7c0.2,3.4,2.7,6.3,6.1,7
		c4.8,1.3,9.5,3,14.3,4.3c29.4,7.8,46.2,27.8,53.7,56.2c2.3,8.9,3.1,18.4,3.6,27.7c0.9,17.3,1.4,34.5,5.7,51.8
		c-15.9-16.9-37.2-24.5-56.9-34.6c-7.1-3.6-14-7.7-20.6-12.3c-15.9-11.2-23.4-26.9-23.2-46.2c0-6,0.9-12,1.4-17.9
		c1.2-13.8,0.4-17.4-7.2-32.1c-4.3,12.4-8.7,24.2-12.2,36.2c-1.2,4.3,0.2,9.3-0.2,13.9c-0.9,12.2-0.7,24.8-3.3,36.7
		c-6.6,29.2-24.4,49.8-51.4,62.5c-19.8,9.3-41,13.8-62.3,17.5c-12.4,2.2-24.9,3.8-38.9,5.8c1.8-2.6,2.6-4,3.7-5.1
		c13.7-13.6,21.3-30.3,26.1-48.7c2.2-8.7,4.4-17.5,7.7-25.8c12.3-31.2,34.3-50.9,68.3-56c7.9-1.2,15.7-3.2,23.4-4.9
		c5-1.1,7.7-4,9-9.3c3.8-15.2,8.1-30.2,12.3-45.3c10.8-38.5,30.7-70.7,64.9-92.9c0.7-0.5,1.1-1.4,2.3-3c-1.9-0.1-3.1-0.2-4.3-0.2
		c-39,1.2-77.9,3.6-116.2,11.4c-13.9,2.9-27.6,7.6-40.9,12.8c-13,5.1-25.5,11.6-37.9,17.9c-19.3,9.8-36.7,23.1-51.2,39.2
		c-45.1,49.6-90.8,98.5-136.2,147.8c-6.8,7.3-13.1,15-20.1,23.2c-4.6-6.5-5.8-13.7-7.9-20.5c-7.1-23.5-6.9-23.4,7.9-43
		c30.8-40.7,61.5-81.4,92.1-122.1c3.8-5,7.3-10.4,10.8-15.6c14-20.9,18.1-43.5,10.8-67.7c-4.2-14-8.9-27.9-14.2-41.6
		c-7.9-20.9-15.6-41.8-18.7-64.1c-6-42.4-2.3-85.6,10.8-126.4c30-94.7,92-161.3,181-203.8c1.4-0.5,2.7-1,4.2-1.4
		c-5.1,12.9-10.3,24.8-14.4,37.1c-4.1,12.3-7.2,24.9-10.8,37.8c-28.2,12-48.8,33.7-66.2,58.5c-32.2,45.9-50.4,96.8-49.8,153.3
		c0.3,15,2.1,29.9,5.6,44.5c9.9,43.1,37.5,67.5,81.2,74.2c30.9,4.8,61.1,1.2,91.3-5.1c5.4-1.1,10.8-2.4,17.6-3.9
		c-8.5-6.7-16.3-10.6-26.2-11.1c-9.6-0.5-19.2-1.9-28.5-4.2c-13.4-3.4-23.9-11.5-31.9-22.7c-9.8-13.5-16-29.4-17.9-46
		c-2.6-22.6,1.7-44.2,6.7-65.9c1,0.1,1.5,0,1.6,0.2c11,16.7,28,24.9,45.3,33c24.6,11.4,40,30.7,45.7,57.1c1.9,8.7,1.4,17.8,2.1,27.6
		c14.9,8.4,31.2,14.1,48.1,16.7c19.3,3.2,38.9,6.2,58.5,6.5c61.8,1,123,6.4,183.8,17.6c8.3,1.6,15.3,4.5,21.9,10.4
		c29,26.1,63.1,39.1,102.3,37.5c3-0.1,6.1,0,8.9-0.9c9.7-3.2,18.1-0.8,26.4,4.3c5.2,3.2,10.9,5.7,18.3,9.5
		c-5.8-14.7-8.3-28.2-20.8-37.3c-8.7-6.4-15.8-15.2-22.9-23.6c-17-20.1-20.5-43-14.3-68.4c8.9-36.4,30.6-63.7,58.9-87.2
		c0.7,1.1,1.6,1.8,1.6,2.6c0.6,16.3,6,31.3,12.9,45.8c6.2,12.9,12.9,25.6,18.3,38.8c10.3,25.2,6.4,49-8.9,71.1
		c-13.6,19.6-13.9,21.7-2.2,41.8c19.7,33.6,46.8,59.6,80.7,78.5c1.1,0.4,2.3,0.8,3.5,1c-0.8-8.2-2.9-14.8-8.9-20.5
		c-16.1-15.5-26-34.3-28.1-57c-1.2-13.2,0.9-26,5.3-38.3c8.8-24.8,24.6-44.7,44.3-63.7c0.5,2.9,1.1,4.6,1,6.3
		c-0.5,17.1,5.5,31.8,15.2,45.6c15,21.3,20.6,44.8,12.6,70.1c-3.1,9.5-7.8,18.4-14,26.2c-7.1,9.1-7.5,17-1.3,26.1
		c1.5,2.2,2.7,4.6,3.8,7c12.2,27,34.7,41.2,61.6,49.9c19.4,6.3,26.6,1.4,28.4-18.9c1.7-18.8-0.7-37.2-4.8-55.5
		c-0.3-1.6-0.6-3.2-0.9-5c0.8,0.2,1.3,0.2,1.3,0.4c16.7,31.4,37.3,60.8,49.6,94.4c17.7,48.4,30.5,98,30.6,150
		c0.1,27.8-5.2,55-10.8,82.1c-7,33.9-14.7,67.7-17.9,102.3c-2.6,27.6-2.8,55.2,1.8,82.7c6.8,40.4,26.6,73.5,55.9,101.5
		c7.9,7.6,15.9,15.2,24.4,22.2c42.3,34.5,79.3,74.2,114.2,115.9c13.9,16.6,28,33.1,40.8,50.6c23.2,31.5,54.1,46.2,92.8,45.9
		c10.7-0.1,21.3,0.2,32-0.1c5-0.2,9.1,0.7,12.6,4.5c2.2,2.4,5,4.4,7.4,6.7c36.1,32.9,79.6,50.4,126.6,60c15.6,3.2,31.8,3.9,47.4,7.1
		c9.4,1.9,18.5,5.4,26.8,10.3C1858.7,1922.3,1872.2,1926.9,1886.1,1928.2L1886.1,1928.2z"/>
	<path fill="#2A3F2A" d="M1274.8,872.5c6.3,21,17.5,39.5,28.7,58c0.5,0.8,1.4,1.3,3.4,3c0.9-3.8,2.2-6.8,2.1-9.7
		c-0.2-23,5.4-44.9,11.3-66.7c10-36.9,5.9-73.3-4.5-109.4c-9.1-31.5-22.5-61.2-37.7-90.1c-7.8-14.7-14.7-29.8-21.8-44.9
		c-1.7-3.7-2.6-7.7-2.6-11.8c0.5,0.4,0.9,0.9,1.3,1.5c11,21.7,21.4,43.6,32.9,65c16.8,31.3,30.4,63.6,37.8,98.5
		c7,33.1,7.1,66.1-2,98.9c-5.6,20.2-10.1,40.7-10.7,61.9c-0.1,4.6,0.2,10.5-4.9,12.1c-5.8,1.9-8.8-3.9-11.5-7.8
		c-12.5-18.3-21-38.6-27.8-59.6c-3.4-10.4-6.3-21.1-9.5-31.6c-6.1-19.8-16.3-38.1-29.9-53.8c-1.6-1.9-3.1-4-4.7-5.9l1.5-1.2
		c15.3,14.4,27.1,32.2,34.5,51.9C1266.3,844.4,1270.6,858.5,1274.8,872.5z"/>
	<path fill="#2A3F2A" d="M1353.7,1821.2l3.6,6.5L1353.7,1821.2L1353.7,1821.2z"/>
	<path fill="#718C68" d="M515.4,849.3c-3.4,0.2-7.1,1.3-10.2,0.5c-7-1.7-14.5-3.2-20.6-6.8c-20.7-12.2-32.6-31.2-38.4-54.5
		C462.3,816.6,490.8,830,515.4,849.3z"/>
	<path fill="#718C68" d="M274.4,1569.4c4.3-10.3,8-21,12.2-32.4c2.8,2.2,4.6,3.6,6.2,5c24.5,21,48.4,42.8,73.7,62.8
		c47.7,37.6,77.5,86.1,92.6,144.3c4.1,15.8,6.6,32,7.3,48.4c-12.2-6.1-23.6-11.4-34.6-17.4c-2-1.1-2.9-4.9-3.6-7.6
		c-3.2-12.9-5.3-26.2-9.5-38.7c-12.7-37.7-35.4-67.9-67.6-91.7c-25.4-18.8-49-39.9-73.6-59.8
		C272.9,1578.6,272.1,1574.9,274.4,1569.4z"/>
	<path fill="#2A3F2A" d="M1448.7,2213.9l-33.2-31.5c16.1-19.8,27.2-42,36.6-65.2c14.9-36.9,25.6-75,30.3-114.5
		c2.1-17.5,3.1-35.2-1.2-52.6c-1.3-5.2-3.3-10.1-6-14.7c-5.9-9.6-14.8-12.6-24.9-7.3c-7.3,3.8-13.8,9.2-20.1,14.5
		c-4.9,4.1-9,9.3-14.9,12.8c1.5-3.6,3-7.2,4.4-10.8c14.7-38.5,12.2-75-12.4-108.9c-2.7-3.8-5.9-7.3-9.3-10.4
		c-11.7-10.6-21.2-8-26,7.2c-1.5,4.7-2.2,9.7-3.4,15.4l-8.3-14.9l-2.7-4.8c-0.1-0.1-0.2-0.3-0.2-0.4l-3.6-6.5h0.2l0,0l0,0l0,0
		c-0.1-0.4-0.2-0.8-0.3-1.2l0,0c-0.1-3.2-0.1-6.3-0.5-9.4c-1.4-11.5-4.2-23-4.2-34.5c0-15.6,12.3-22.5,26.4-15.3
		c6,3.1,11.5,8,16.1,13c9.1,10.1,17.6,20.9,26.2,31.5c17.2,21.4,30.4,45.3,43.5,69.3c10.5,19.2,21.9,38.1,34.1,56.4
		c9.3,13.9,21.9,25.4,36.8,33.2c8.4,4.5,17.1,8.9,27.1,8.7c2,1.5,4.5,2.7,5.9,4.6c12.9,18.1,25.6,36.4,39.1,55.5l-25.4,32.5
		c-2.7-3.2-4.6-5.4-6.4-7.6c-6.4-8.1-12.6-16.3-19.3-24.2c-3-3.6-6.4-6.8-10.2-9.5c-6.2-4.5-9.5-3.4-11.6,4
		c-4.9,17.3-9.6,34.6-14,52.1c-9.9,38.5-27.2,73.6-48.3,106.9C1463,2196.3,1455.7,2204.5,1448.7,2213.9z"/>
	<path fill="#2A3F2A" d="M1498.4,1295.5C1498.4,1295.5,1498.4,1295.5,1498.4,1295.5l-0.2,0.2
		C1498.3,1295.6,1498.3,1295.6,1498.4,1295.5z"/>
	<path fill="#2A3F2A" d="M1328.1,2296.1c18.6-19.1,35.7-39.6,51.1-61.3c1.3-1.9,2.9-3.5,4.8-5.8l23.9,26.1c-0.9,2-2,4-3.1,5.9
		c-24.5,35.5-51.6,68.7-84.3,97c-16.6,14.3-34.6,26.4-56.8,29.5c-10.7,1.5-22.1,2-32.7,0.3c-28.6-4.7-47.9-24.6-53.5-53.6
		c-7.1-36.6,6.2-67.2,29-94.9c0.4-0.4,1.2-0.6,2.3-1.1c7.9,10,15.9,20.1,24.3,30.8c-2.1,3.4-4.6,6.9-6.4,10.7
		c-4.3,8.9-9.2,17.8-12.3,27.1c-3.3,9.9-1.1,19.8,4.4,28.7c7.4,12,19.9,17.6,33.4,13.6c9.5-2.9,18.7-6.9,27.2-12
		C1297.7,2326.1,1313.2,2311.4,1328.1,2296.1z"/>
	<path fill="#718C68" d="M708,1078c-1.7-15.4,0.8-30.9,7.4-44.9c4-8.9,9.8-16.7,18.6-21.5c3-1.7,6.4-2.6,12-4.7
		C734,1032.8,716.2,1052.9,708,1078z"/>
	<path fill="#718C68" d="M1353.7,1821L1353.7,1821c-0.3-0.2-0.7-0.4-1-0.6L1353.7,1821z"/>
	<path fill="#2A3F2A" d="M1051.3,2107.2c10.5-8.9,20.8-17.6,32-27.1c2.7,3.6,5.4,6.9,7.7,10.4c19.8,29.4,32.1,61.9,40,96.1
		c8.6,37.4,10.6,75.9,5.9,114c-1,7.8-2,15.7-6.6,22.9c-10-11.8-19.7-23.1-29.1-34.7c-1.6-2-2-5.5-2-8.3c-0.1-12.6,0.8-25.3,0.2-37.9
		C1097.1,2192.9,1082.8,2147.3,1051.3,2107.2z"/>
	<path fill="#2A3F2A" d="M1206.1,552.3c-1.8-12.5-2.9-25,2.1-37c-3.5,40.7,10.1,77.8,24.1,114.4c10.1,26.4,22.6,51.8,33.6,77.9
		c7.4,17.5,14.1,35.3,16,54.4c0.8,6.3,0.6,12.6-0.4,18.8c-1.3,7.3-6.9,8.7-12.4,3.6c-2.4-2.3-4.4-5-6.2-7.8
		c-6-9.2-11.9-18.5-17.6-27.8c-8.8-14.2-18.1-28-30.6-39.3c-0.6-0.5-0.8-1.4,0-3.4c4.3,3.9,8.9,7.4,12.8,11.7
		c13.9,15.3,25.9,32.2,35.8,50.4c3,5.4,5.4,11.4,11.6,14.7c3.6-2.7,2.3-6.3,1.9-9.2c-2.6-19.1-5.1-38.3-12.9-56.2
		c-7-16.2-14.4-32.2-21.8-48.2C1224.8,631.9,1212.1,593.1,1206.1,552.3z"/>
	<path fill="#073808" d="M949.9,923.8c-43.2,5.3-79.7-3.9-111-35.4C877.8,895.9,914.1,905.7,949.9,923.8z"/>
	<path fill="#718C68" d="M640,487.1c20.2,24,71.2,7.7,88.6-17.8C700.8,487.3,670.8,485.7,640,487.1z M545.2,512.8
		c-0.7-11,11-40.6,21.5-54.8l59.7,15c2.7-3.3,4.8-5.8,6.9-8.4c19.5-23.8,44-37,75.5-35.6c13,0.6,26,0.5,38.9,0
		c13.6-0.5,25.4-5.4,34.2-18.3c0.8,3.1,1.6,5,1.7,7c0.8,34.2-10.3,64.1-33.3,89.4c-13.1,14.4-30.8,18.8-49.2,21.7
		c-24.8,3.8-47.8-0.6-69.2-13.4c-8.6-5.1-17.4-7.9-27.4-7.4c-5.6,0.3-11.3-0.7-17-0.6C573.3,507.6,559,507.8,545.2,512.8z"/>
	<path fill="#718C68" d="M1874.4,742.7c10.4,2.2,19,7.3,24.8,18.9c-28.7-6.3-56-15.2-85.5-1.3c2.1-3.1,2.5-4.2,3.2-4.7
		C1834.4,743.9,1853.3,738.2,1874.4,742.7z"/>
	<path fill="#2A3F2A" d="M1354,1821.2L1354,1821.2L1354,1821.2z"/>
	<path fill="#2A3F2A" d="M2308.5,1738.2c-2-9.3-3.4-17-5.2-24.6c-6.2-25.2-12-50.5-19-75.4c-20.8-74.3-9.8-144.2,28.5-210.5
		c0.9-1.6,2.2-3.1,4.3-6c6.8,11.6,13.2,22,18.8,32.8c1.1,2.1-0.9,6.2-2.3,8.9c-10.1,18.4-17.3,38.3-21.3,58.9
		c-5.7,29.2-4.2,59.3,4.4,87.8c9.2,30.9,16.9,62.2,25.2,93.4c0.9,3.5,1.3,7.1,2.1,11.3L2308.5,1738.2z"/>
	<path fill="#718C68" d="M1416.2,2422.3c9.9,4.7,19.4,10.1,31.6,16.6l-36.7,28.5c-5.3-2.9-9.9-5.5-14.5-8
		c-35.9-19.5-73.2-23.6-111.7-8.8c-16.8,6.4-33,14.1-49.6,21.1c-15.6,6.6-31.2,13.3-47.1,19.2c-31.3,11.8-63.6,13.2-96.4,7.4
		c-40.1-7.1-78.5-21.8-113.1-43.3c-3.5-2-6.5-4.7-9-7.9c4.3-0.6,8.6-1.2,12.9-2c16.3-3.1,32.7-6,48.9-9.5c3.9-0.8,6.9-1,10.3,1.3
		c39.6,26.9,82.6,28.8,127.3,17c19.7-5.2,38.4-13.2,56.3-22.7c20.4-10.8,41.6-19.5,64.2-24.3
		C1333.7,2397.4,1375.8,2403,1416.2,2422.3z"/>
	<path fill="#2A3F2A" d="M1559.6,976.7c-2.6-11.1,0.2-41.4,6-67.4C1577.6,933.6,1575.4,968.2,1559.6,976.7z"/>
	<path fill="#2A3F2A" d="M683.8,706c-11,21.8-41.1,35.5-61.9,27.4C641.7,720.2,663.9,717.2,683.8,706z"/>
	<path fill="#718C68" d="M2417.6,1718.3c-29,22.4-58.7,43.8-90.3,62.4c-25.2,14.9-51.1,28.5-76.7,42.7c-2.8,1.6-5.8,2.7-9.9,4.6
		c-1.2-14.3-2.4-27.5-3.6-41.7c63.1-32.9,122.5-72.3,177.4-117.6c1,2.2,1.8,4.5,2.5,6.9c2.1,9.8,3.8,19.6,6.1,29.3
		C2424.7,1711,2422.4,1714.7,2417.6,1718.3z"/>
	<path fill="#2A3F2A" d="M255.8,1124.9l28.6-30.1c16,32.3,31.5,62.9,46.1,93.8c7.2,15.3,14.4,30.8,19.2,47
		c15.8,53.6,13.8,107.1-3.7,160.1c-0.8,2.5-1.9,4.9-3.6,9c-4.7-5.4-8.7-10-12.7-14.6c-4.5-5.3-11.2-10.1-12.8-16.2
		c-1.5-5.6,2.6-12.7,4-19.1c10.9-49.5,5.1-96.2-20.6-140.7c-14.9-25.9-27.3-53.2-40.8-80C258.2,1131.6,257.3,1128.7,255.8,1124.9z"
		/>
</g>
<g>
	<text transform="matrix(1 0 0 1 2855.2725 1233.1536)" fill="#718C68" font-family="'ArialMT'" font-size="781.8913px">Serenity Eco</text>
	
		<text transform="matrix(1 0 0 1 6474.6147 1233.1536)" fill="#718C68" font-family="'ArialMT'" font-size="781.8913px" letter-spacing="-234"> </text>
	<text transform="matrix(1 0 0 1 7461.1909 1233.1536)" fill="#718C68" font-family="'ArialMT'" font-size="781.8913px">Village</text>
</g>
<text transform="matrix(1 0 0 1 2884.9126 2093.2864)" fill="#2A3F2A" font-family="'ArialMT'" font-size="716.7773px" letter-spacing="193">ASSOCIATION</text>
</svg>
